<svg width="1440" height="150" viewBox="0 0 1440 150" fill="none" xmlns="http://www.w3.org/2000/svg">
<path d="M918.301 133L917.301 133.006L917.307 134H918.301V133ZM918.061 94.72L919.061 94.7137L919.038 91.1151L917.201 94.2095L918.061 94.72ZM899.821 125.44V126.44H900.39L900.681 125.951L899.821 125.44ZM887.341 125.44L886.491 125.967L886.785 126.44H887.341V125.44ZM869.101 96.04L869.951 95.5128L868.101 92.5313V96.04H869.101ZM869.101 133V134H870.101V133H869.101ZM843.301 133H842.301V134H843.301V133ZM843.301 49V48H842.301V49H843.301ZM866.581 49L867.434 48.4785L867.142 48H866.581V49ZM893.941 93.76L893.088 94.2815L893.952 95.6961L894.8 94.2714L893.941 93.76ZM920.581 49V48H920.012L919.722 48.4886L920.581 49ZM943.861 49L944.861 48.9971L944.858 48H943.861V49ZM944.101 133V134H945.104L945.101 132.997L944.101 133ZM919.301 132.994L919.061 94.7137L917.061 94.7263L917.301 133.006L919.301 132.994ZM917.201 94.2095L898.961 124.929L900.681 125.951L918.921 95.2305L917.201 94.2095ZM899.821 124.44H887.341V126.44H899.821V124.44ZM888.191 124.913L869.951 95.5128L868.251 96.5672L886.491 125.967L888.191 124.913ZM868.101 96.04V133H870.101V96.04H868.101ZM869.101 132H843.301V134H869.101V132ZM844.301 133V49H842.301V133H844.301ZM843.301 50H866.581V48H843.301V50ZM865.728 49.5215L893.088 94.2815L894.794 93.2385L867.434 48.4785L865.728 49.5215ZM894.8 94.2714L921.44 49.5114L919.722 48.4886L893.082 93.2486L894.8 94.2714ZM920.581 50H943.861V48H920.581V50ZM942.861 49.0028L943.101 133.003L945.101 132.997L944.861 48.9971L942.861 49.0028ZM944.101 132H918.301V134H944.101V132ZM977.473 129.28L977.936 128.394L977.473 129.28ZM960.553 113.68L959.698 114.199L959.701 114.204L960.553 113.68ZM960.553 68.44L961.405 68.9635L961.408 68.959L960.553 68.44ZM1026.19 52.72L1026.66 51.8336L1026.19 52.72ZM1043.11 68.44L1042.26 68.959L1042.26 68.9635L1043.11 68.44ZM1043.11 113.68L1043.97 114.204L1043.97 114.199L1043.11 113.68ZM1026.19 129.28L1026.66 130.166L1026.19 129.28ZM1011.31 109.48L1011.83 110.338L1011.83 110.333L1011.31 109.48ZM1018.15 102.16L1019.03 102.634L1019.04 102.625L1018.15 102.16ZM1018.15 79.96L1017.27 80.4249L1017.27 80.4341L1018.15 79.96ZM1011.31 72.64L1010.78 73.4866L1010.79 73.4954L1010.81 73.5038L1011.31 72.64ZM992.233 72.64L992.748 73.4975L992.755 73.4933L992.233 72.64ZM985.513 79.96L986.394 80.4341L986.399 80.4248L985.513 79.96ZM985.513 102.16L984.628 102.625L984.633 102.634L985.513 102.16ZM992.233 109.48L991.701 110.327L991.715 110.335L991.729 110.344L992.233 109.48ZM1001.83 133.92C992.936 133.92 984.978 132.071 977.936 128.394L977.01 130.166C984.369 134.009 992.65 135.92 1001.83 135.92V133.92ZM977.936 128.394C970.889 124.714 965.386 119.636 961.405 113.156L959.701 114.204C963.88 121.004 969.657 126.326 977.01 130.166L977.936 128.394ZM961.408 113.161C957.429 106.608 955.433 99.23 955.433 91H953.433C953.433 99.57 955.517 107.312 959.698 114.199L961.408 113.161ZM955.433 91C955.433 82.7699 957.429 75.4338 961.405 68.9635L959.701 67.9165C955.517 74.7262 953.433 82.4301 953.433 91H955.433ZM961.408 68.959C965.39 62.4002 970.892 57.2849 977.936 53.6064L977.01 51.8336C969.654 55.6751 963.876 61.0397 959.698 67.921L961.408 68.959ZM977.936 53.6064C984.978 49.9291 992.936 48.08 1001.83 48.08V46.08C992.65 46.08 984.369 47.9909 977.01 51.8336L977.936 53.6064ZM1001.83 48.08C1010.73 48.08 1018.69 49.9291 1025.73 53.6064L1026.66 51.8336C1019.3 47.9909 1011.02 46.08 1001.83 46.08V48.08ZM1025.73 53.6064C1032.77 57.2849 1038.28 62.4002 1042.26 68.959L1043.97 67.921C1039.79 61.0397 1034.01 55.6751 1026.66 51.8336L1025.73 53.6064ZM1042.26 68.9635C1046.24 75.4338 1048.23 82.7699 1048.23 91H1050.23C1050.23 82.4301 1048.15 74.7262 1043.97 67.9165L1042.26 68.9635ZM1048.23 91C1048.23 99.23 1046.24 106.608 1042.26 113.161L1043.97 114.199C1048.15 107.312 1050.23 99.57 1050.23 91H1048.23ZM1042.26 113.156C1038.28 119.636 1032.78 124.714 1025.73 128.394L1026.66 130.166C1034.01 126.326 1039.79 121.004 1043.97 114.204L1042.26 113.156ZM1025.73 128.394C1018.69 132.071 1010.73 133.92 1001.83 133.92V135.92C1011.02 135.92 1019.3 134.009 1026.66 130.166L1025.73 128.394ZM1001.83 113C1005.52 113 1008.86 112.118 1011.83 110.337L1010.8 108.623C1008.17 110.202 1005.19 111 1001.83 111V113ZM1011.83 110.333C1014.87 108.476 1017.27 105.902 1019.03 102.634L1017.27 101.686C1015.67 104.658 1013.51 106.964 1010.79 108.627L1011.83 110.333ZM1019.04 102.625C1020.81 99.2585 1021.67 95.3739 1021.67 91H1019.67C1019.67 95.1061 1018.86 98.6615 1017.27 101.695L1019.04 102.625ZM1021.67 91C1021.67 86.6269 1020.81 82.7777 1019.03 79.4859L1017.27 80.4341C1018.86 83.3823 1019.67 86.8931 1019.67 91H1021.67ZM1019.04 79.4952C1017.28 76.1435 1014.87 73.5587 1011.82 71.7762L1010.81 73.5038C1013.51 75.0813 1015.67 77.3765 1017.27 80.4248L1019.04 79.4952ZM1011.85 71.7934C1008.88 69.9266 1005.53 69 1001.83 69V71C1005.18 71 1008.15 71.8334 1010.78 73.4866L1011.85 71.7934ZM1001.83 69C998.137 69 994.756 69.9265 991.712 71.7867L992.755 73.4933C995.471 71.8335 998.489 71 1001.83 71V69ZM991.719 71.7825C988.745 73.5668 986.384 76.1506 984.628 79.4952L986.399 80.4248C988.003 77.3694 990.121 75.0732 992.748 73.4975L991.719 71.7825ZM984.633 79.4859C982.86 82.7777 981.993 86.6269 981.993 91H983.993C983.993 86.8931 984.806 83.3823 986.394 80.4341L984.633 79.4859ZM981.993 91C981.993 95.3739 982.86 99.2585 984.628 102.625L986.399 101.695C984.806 98.6615 983.993 95.1061 983.993 91H981.993ZM984.633 102.634C986.389 105.895 988.744 108.468 991.701 110.327L992.765 108.633C990.122 106.972 987.998 104.665 986.394 101.686L984.633 102.634ZM991.729 110.344C994.771 112.118 998.146 113 1001.83 113V111C998.48 111 995.455 110.202 992.737 108.616L991.729 110.344ZM1079.19 129.28L1079.65 128.394L1079.19 129.28ZM1062.27 113.68L1061.42 114.199L1061.42 114.204L1062.27 113.68ZM1062.27 68.44L1063.12 68.9635L1063.13 68.959L1062.27 68.44ZM1127.91 52.72L1128.37 51.8336L1127.91 52.72ZM1144.83 68.44L1143.98 68.959L1143.98 68.9635L1144.83 68.44ZM1144.83 113.68L1145.68 114.204L1145.69 114.199L1144.83 113.68ZM1127.91 129.28L1128.37 130.166L1127.91 129.28ZM1113.03 109.48L1113.55 110.338L1113.55 110.333L1113.03 109.48ZM1119.87 102.16L1120.75 102.634L1120.76 102.625L1119.87 102.16ZM1119.87 79.96L1118.99 80.4249L1118.99 80.4341L1119.87 79.96ZM1113.03 72.64L1112.5 73.4866L1112.51 73.4954L1112.53 73.5038L1113.03 72.64ZM1093.95 72.64L1094.47 73.4975L1094.47 73.4933L1093.95 72.64ZM1087.23 79.96L1088.11 80.4341L1088.12 80.4248L1087.23 79.96ZM1087.23 102.16L1086.35 102.625L1086.35 102.634L1087.23 102.16ZM1093.95 109.48L1093.42 110.327L1093.43 110.335L1093.45 110.344L1093.95 109.48ZM1103.55 133.92C1094.65 133.92 1086.7 132.071 1079.65 128.394L1078.73 130.166C1086.09 134.009 1094.37 135.92 1103.55 135.92V133.92ZM1079.65 128.394C1072.61 124.714 1067.11 119.636 1063.12 113.156L1061.42 114.204C1065.6 121.004 1071.38 126.326 1078.73 130.166L1079.65 128.394ZM1063.13 113.161C1059.15 106.608 1057.15 99.23 1057.15 91H1055.15C1055.15 99.57 1057.24 107.312 1061.42 114.199L1063.13 113.161ZM1057.15 91C1057.15 82.7699 1059.15 75.4338 1063.12 68.9635L1061.42 67.9165C1057.24 74.7262 1055.15 82.4301 1055.15 91H1057.15ZM1063.13 68.959C1067.11 62.4002 1072.61 57.2849 1079.65 53.6064L1078.73 51.8336C1071.37 55.6751 1065.6 61.0397 1061.42 67.921L1063.13 68.959ZM1079.65 53.6064C1086.7 49.9291 1094.65 48.08 1103.55 48.08V46.08C1094.37 46.08 1086.09 47.9909 1078.73 51.8336L1079.65 53.6064ZM1103.55 48.08C1112.45 48.08 1120.41 49.9291 1127.45 53.6064L1128.37 51.8336C1121.02 47.9909 1112.73 46.08 1103.55 46.08V48.08ZM1127.45 53.6064C1134.49 57.2849 1139.99 62.4002 1143.98 68.959L1145.69 67.921C1141.51 61.0397 1135.73 55.6751 1128.37 51.8336L1127.45 53.6064ZM1143.98 68.9635C1147.96 75.4338 1149.95 82.7699 1149.95 91H1151.95C1151.95 82.4301 1149.87 74.7262 1145.68 67.9165L1143.98 68.9635ZM1149.95 91C1149.95 99.23 1147.96 106.608 1143.98 113.161L1145.69 114.199C1149.87 107.312 1151.95 99.57 1151.95 91H1149.95ZM1143.98 113.156C1140 119.636 1134.5 124.714 1127.45 128.394L1128.37 130.166C1135.73 126.326 1141.51 121.004 1145.68 114.204L1143.98 113.156ZM1127.45 128.394C1120.41 132.071 1112.45 133.92 1103.55 133.92V135.92C1112.73 135.92 1121.02 134.009 1128.37 130.166L1127.45 128.394ZM1103.55 113C1107.24 113 1110.58 112.118 1113.55 110.337L1112.52 108.623C1109.88 110.202 1106.91 111 1103.55 111V113ZM1113.55 110.333C1116.59 108.476 1118.99 105.902 1120.75 102.634L1118.99 101.686C1117.39 104.658 1115.23 106.964 1112.51 108.627L1113.55 110.333ZM1120.76 102.625C1122.52 99.2585 1123.39 95.3739 1123.39 91H1121.39C1121.39 95.1061 1120.58 98.6615 1118.99 101.695L1120.76 102.625ZM1123.39 91C1123.39 86.6269 1122.52 82.7777 1120.75 79.4859L1118.99 80.4341C1120.58 83.3823 1121.39 86.8931 1121.39 91H1123.39ZM1120.76 79.4952C1119 76.1435 1116.59 73.5587 1113.54 71.7762L1112.53 73.5038C1115.23 75.0813 1117.39 77.3765 1118.99 80.4248L1120.76 79.4952ZM1113.56 71.7934C1110.59 69.9266 1107.25 69 1103.55 69V71C1106.9 71 1109.87 71.8334 1112.5 73.4866L1113.56 71.7934ZM1103.55 69C1099.86 69 1096.47 69.9265 1093.43 71.7867L1094.47 73.4933C1097.19 71.8335 1100.21 71 1103.55 71V69ZM1093.44 71.7825C1090.46 73.5668 1088.1 76.1506 1086.35 79.4952L1088.12 80.4248C1089.72 77.3694 1091.84 75.0732 1094.47 73.4975L1093.44 71.7825ZM1086.35 79.4859C1084.58 82.7777 1083.71 86.6269 1083.71 91H1085.71C1085.71 86.8931 1086.52 83.3823 1088.11 80.4341L1086.35 79.4859ZM1083.71 91C1083.71 95.3739 1084.58 99.2585 1086.35 102.625L1088.12 101.695C1086.52 98.6615 1085.71 95.1061 1085.71 91H1083.71ZM1086.35 102.634C1088.11 105.895 1090.46 108.468 1093.42 110.327L1094.48 108.633C1091.84 106.972 1089.72 104.665 1088.11 101.686L1086.35 102.634ZM1093.45 110.344C1096.49 112.118 1099.87 113 1103.55 113V111C1100.2 111 1097.17 110.202 1094.46 108.616L1093.45 110.344ZM1244.03 49H1245.03V48H1244.03V49ZM1244.03 133V134H1245.03V133H1244.03ZM1220.75 133L1219.98 133.642L1220.28 134H1220.75V133ZM1188.83 94.84L1189.6 94.1984L1187.83 92.0859V94.84H1188.83ZM1188.83 133V134H1189.83V133H1188.83ZM1161.23 133H1160.23V134H1161.23V133ZM1161.23 49V48H1160.23V49H1161.23ZM1184.51 49L1185.28 48.3584L1184.98 48H1184.51V49ZM1216.43 87.16L1215.66 87.8016L1217.43 89.9141V87.16H1216.43ZM1216.43 49V48H1215.43V49H1216.43ZM1243.03 49V133H1245.03V49H1243.03ZM1244.03 132H1220.75V134H1244.03V132ZM1221.52 132.358L1189.6 94.1984L1188.06 95.4816L1219.98 133.642L1221.52 132.358ZM1187.83 94.84V133H1189.83V94.84H1187.83ZM1188.83 132H1161.23V134H1188.83V132ZM1162.23 133V49H1160.23V133H1162.23ZM1161.23 50H1184.51V48H1161.23V50ZM1183.74 49.6416L1215.66 87.8016L1217.2 86.5184L1185.28 48.3584L1183.74 49.6416ZM1217.43 87.16V49H1215.43V87.16H1217.43ZM1216.43 50H1244.03V48H1216.43V50ZM1318.4 52.84L1317.99 53.7538L1318.4 52.84ZM1331.72 63.88L1330.88 64.425V64.425L1331.72 63.88ZM1331.72 97.48L1330.88 96.935L1331.72 97.48ZM1318.4 108.52L1317.99 107.606L1318.4 108.52ZM1286 112.36V111.36H1285V112.36H1286ZM1286 133V134H1287V133H1286ZM1257.68 133H1256.68V134H1257.68V133ZM1257.68 49V48H1256.68V49H1257.68ZM1304.96 88L1305.61 88.7526L1305.62 88.745L1305.63 88.7372L1304.96 88ZM1304.96 73.48L1304.28 74.2172L1304.29 74.225L1304.3 74.2326L1304.96 73.48ZM1286 70.84V69.84H1285V70.84H1286ZM1286 90.52H1285V91.52H1286V90.52ZM1298.12 50C1305.77 50 1312.38 51.2622 1317.99 53.7538L1318.8 51.9262C1312.89 49.2978 1305.98 48 1298.12 48V50ZM1317.99 53.7538C1323.59 56.2435 1327.87 59.8034 1330.88 64.425L1332.55 63.335C1329.32 58.3566 1324.72 54.5565 1318.8 51.9262L1317.99 53.7538ZM1330.88 64.425C1333.88 69.0441 1335.4 74.4499 1335.4 80.68H1337.4C1337.4 74.1101 1335.79 68.3159 1332.55 63.335L1330.88 64.425ZM1335.4 80.68C1335.4 86.9101 1333.88 92.3159 1330.88 96.935L1332.55 98.025C1335.79 93.0441 1337.4 87.2499 1337.4 80.68H1335.4ZM1330.88 96.935C1327.87 101.557 1323.59 105.116 1317.99 107.606L1318.8 109.434C1324.72 106.804 1329.32 103.003 1332.55 98.025L1330.88 96.935ZM1317.99 107.606C1312.38 110.098 1305.77 111.36 1298.12 111.36V113.36C1305.98 113.36 1312.89 112.062 1318.8 109.434L1317.99 107.606ZM1298.12 111.36H1286V113.36H1298.12V111.36ZM1285 112.36V133H1287V112.36H1285ZM1286 132H1257.68V134H1286V132ZM1258.68 133V49H1256.68V133H1258.68ZM1257.68 50H1298.12V48H1257.68V50ZM1296.32 91.52C1300.28 91.52 1303.44 90.6558 1305.61 88.7526L1304.3 87.2474C1302.63 88.7042 1300.03 89.52 1296.32 89.52V91.52ZM1305.63 88.7372C1307.8 86.7505 1308.84 84.0201 1308.84 80.68H1306.84C1306.84 83.5799 1305.95 85.7295 1304.28 87.2628L1305.63 88.7372ZM1308.84 80.68C1308.84 77.3415 1307.8 74.6389 1305.61 72.7274L1304.3 74.2326C1305.95 75.6811 1306.84 77.7785 1306.84 80.68H1308.84ZM1305.63 72.7428C1303.46 70.7488 1300.29 69.84 1296.32 69.84V71.84C1300.02 71.84 1302.62 72.6912 1304.28 74.2172L1305.63 72.7428ZM1296.32 69.84H1286V71.84H1296.32V69.84ZM1285 70.84V90.52H1287V70.84H1285ZM1286 91.52H1296.32V89.52H1286V91.52ZM1345.68 49V48H1344.68V49H1345.68ZM1374 49H1375V48H1374V49ZM1374 133V134H1375V133H1374ZM1345.68 133H1344.68V134H1345.68V133ZM1345.68 50H1374V48H1345.68V50ZM1373 49V133H1375V49H1373ZM1374 132H1345.68V134H1374V132ZM1346.68 133V49H1344.68V133H1346.68ZM1457.48 111.64H1458.48V110.64H1457.48V111.64ZM1457.48 133V134H1458.48V133H1457.48ZM1387.64 133H1386.64V134H1387.64V133ZM1387.64 49V48H1386.64V49H1387.64ZM1455.92 49H1456.92V48H1455.92V49ZM1455.92 70.36V71.36H1456.92V70.36H1455.92ZM1415.48 70.36V69.36H1414.48V70.36H1415.48ZM1415.48 80.2H1414.48V81.2H1415.48V80.2ZM1451 80.2H1452V79.2H1451V80.2ZM1451 100.6V101.6H1452V100.6H1451ZM1415.48 100.6V99.6H1414.48V100.6H1415.48ZM1415.48 111.64H1414.48V112.64H1415.48V111.64ZM1456.48 111.64V133H1458.48V111.64H1456.48ZM1457.48 132H1387.64V134H1457.48V132ZM1388.64 133V49H1386.64V133H1388.64ZM1387.64 50H1455.92V48H1387.64V50ZM1454.92 49V70.36H1456.92V49H1454.92ZM1455.92 69.36H1415.48V71.36H1455.92V69.36ZM1414.48 70.36V80.2H1416.48V70.36H1414.48ZM1415.48 81.2H1451V79.2H1415.48V81.2ZM1450 80.2V100.6H1452V80.2H1450ZM1451 99.6H1415.48V101.6H1451V99.6ZM1414.48 100.6V111.64H1416.48V100.6H1414.48ZM1415.48 112.64H1457.48V110.64H1415.48V112.64Z" fill="#F7ECDA" fill-opacity="0.5"/>
<path d="M295.301 133L294.301 133.006L294.307 134H295.301V133ZM295.061 94.72L296.061 94.7137L296.038 91.1151L294.201 94.2095L295.061 94.72ZM276.821 125.44V126.44H277.39L277.681 125.951L276.821 125.44ZM264.341 125.44L263.491 125.967L263.785 126.44H264.341V125.44ZM246.101 96.04L246.951 95.5128L245.101 92.5313V96.04H246.101ZM246.101 133V134H247.101V133H246.101ZM220.301 133H219.301V134H220.301V133ZM220.301 49V48H219.301V49H220.301ZM243.581 49L244.434 48.4785L244.142 48H243.581V49ZM270.941 93.76L270.088 94.2815L270.952 95.6961L271.8 94.2714L270.941 93.76ZM297.581 49V48H297.012L296.722 48.4886L297.581 49ZM320.861 49L321.861 48.9971L321.858 48H320.861V49ZM321.101 133V134H322.104L322.101 132.997L321.101 133ZM296.301 132.994L296.061 94.7137L294.061 94.7263L294.301 133.006L296.301 132.994ZM294.201 94.2095L275.961 124.929L277.681 125.951L295.921 95.2305L294.201 94.2095ZM276.821 124.44H264.341V126.44H276.821V124.44ZM265.191 124.913L246.951 95.5128L245.251 96.5672L263.491 125.967L265.191 124.913ZM245.101 96.04V133H247.101V96.04H245.101ZM246.101 132H220.301V134H246.101V132ZM221.301 133V49H219.301V133H221.301ZM220.301 50H243.581V48H220.301V50ZM242.728 49.5215L270.088 94.2815L271.794 93.2385L244.434 48.4785L242.728 49.5215ZM271.8 94.2714L298.44 49.5114L296.722 48.4886L270.082 93.2486L271.8 94.2714ZM297.581 50H320.861V48H297.581V50ZM319.861 49.0028L320.101 133.003L322.101 132.997L321.861 48.9971L319.861 49.0028ZM321.101 132H295.301V134H321.101V132ZM354.473 129.28L354.936 128.394L354.473 129.28ZM337.553 113.68L336.698 114.199L336.701 114.204L337.553 113.68ZM337.553 68.44L338.405 68.9635L338.408 68.959L337.553 68.44ZM403.193 52.72L403.656 51.8336L403.193 52.72ZM420.113 68.44L419.258 68.959L419.261 68.9635L420.113 68.44ZM420.113 113.68L420.965 114.204L420.968 114.199L420.113 113.68ZM403.193 129.28L403.656 130.166L403.193 129.28ZM388.313 109.48L388.828 110.338L388.835 110.333L388.313 109.48ZM395.153 102.16L396.034 102.634L396.039 102.625L395.153 102.16ZM395.153 79.96L394.268 80.4249L394.273 80.4341L395.153 79.96ZM388.313 72.64L387.781 73.4866L387.795 73.4954L387.809 73.5038L388.313 72.64ZM369.233 72.64L369.748 73.4975L369.755 73.4933L369.233 72.64ZM362.513 79.96L363.394 80.4341L363.399 80.4248L362.513 79.96ZM362.513 102.16L361.628 102.625L361.633 102.634L362.513 102.16ZM369.233 109.48L368.701 110.327L368.715 110.335L368.729 110.344L369.233 109.48ZM378.833 133.92C369.936 133.92 361.978 132.071 354.936 128.394L354.01 130.166C361.369 134.009 369.65 135.92 378.833 135.92V133.92ZM354.936 128.394C347.889 124.714 342.386 119.636 338.405 113.156L336.701 114.204C340.88 121.004 346.657 126.326 354.01 130.166L354.936 128.394ZM338.408 113.161C334.429 106.608 332.433 99.23 332.433 91H330.433C330.433 99.57 332.517 107.312 336.698 114.199L338.408 113.161ZM332.433 91C332.433 82.7699 334.429 75.4338 338.405 68.9635L336.701 67.9165C332.517 74.7262 330.433 82.4301 330.433 91H332.433ZM338.408 68.959C342.39 62.4002 347.892 57.2849 354.936 53.6064L354.01 51.8336C346.654 55.6751 340.876 61.0397 336.698 67.921L338.408 68.959ZM354.936 53.6064C361.978 49.9291 369.936 48.08 378.833 48.08V46.08C369.65 46.08 361.369 47.9909 354.01 51.8336L354.936 53.6064ZM378.833 48.08C387.73 48.08 395.689 49.9291 402.73 53.6064L403.656 51.8336C396.298 47.9909 388.016 46.08 378.833 46.08V48.08ZM402.73 53.6064C409.774 57.2849 415.276 62.4002 419.258 68.959L420.968 67.921C416.79 61.0397 411.012 55.6751 403.656 51.8336L402.73 53.6064ZM419.261 68.9635C423.237 75.4338 425.233 82.7699 425.233 91H427.233C427.233 82.4301 425.149 74.7262 420.965 67.9165L419.261 68.9635ZM425.233 91C425.233 99.23 423.237 106.608 419.258 113.161L420.968 114.199C425.149 107.312 427.233 99.57 427.233 91H425.233ZM419.261 113.156C415.28 119.636 409.777 124.714 402.73 128.394L403.656 130.166C411.009 126.326 416.786 121.004 420.965 114.204L419.261 113.156ZM402.73 128.394C395.689 132.071 387.73 133.92 378.833 133.92V135.92C388.016 135.92 396.298 134.009 403.656 130.166L402.73 128.394ZM378.833 113C382.52 113 385.86 112.118 388.828 110.337L387.799 108.623C385.166 110.202 382.187 111 378.833 111V113ZM388.835 110.333C391.873 108.476 394.274 105.902 396.034 102.634L394.273 101.686C392.672 104.658 390.513 106.964 387.792 108.627L388.835 110.333ZM396.039 102.625C397.806 99.2585 398.673 95.3739 398.673 91H396.673C396.673 95.1061 395.86 98.6615 394.268 101.695L396.039 102.625ZM398.673 91C398.673 86.6269 397.806 82.7777 396.034 79.4859L394.273 80.4341C395.86 83.3823 396.673 86.8931 396.673 91H398.673ZM396.039 79.4952C394.279 76.1435 391.873 73.5587 388.817 71.7762L387.809 73.5038C390.514 75.0813 392.667 77.3765 394.268 80.4248L396.039 79.4952ZM388.845 71.7934C385.876 69.9266 382.529 69 378.833 69V71C382.177 71 385.151 71.8334 387.781 73.4866L388.845 71.7934ZM378.833 69C375.137 69 371.756 69.9265 368.712 71.7867L369.755 73.4933C372.471 71.8335 375.489 71 378.833 71V69ZM368.719 71.7825C365.745 73.5668 363.384 76.1506 361.628 79.4952L363.399 80.4248C365.003 77.3694 367.121 75.0732 369.748 73.4975L368.719 71.7825ZM361.633 79.4859C359.86 82.7777 358.993 86.6269 358.993 91H360.993C360.993 86.8931 361.806 83.3823 363.394 80.4341L361.633 79.4859ZM358.993 91C358.993 95.3739 359.86 99.2585 361.628 102.625L363.399 101.695C361.806 98.6615 360.993 95.1061 360.993 91H358.993ZM361.633 102.634C363.389 105.895 365.744 108.468 368.701 110.327L369.765 108.633C367.122 106.972 364.998 104.665 363.394 101.686L361.633 102.634ZM368.729 110.344C371.771 112.118 375.146 113 378.833 113V111C375.48 111 372.455 110.202 369.737 108.616L368.729 110.344ZM456.192 129.28L456.655 128.394L456.192 129.28ZM439.272 113.68L438.417 114.199L438.42 114.204L439.272 113.68ZM439.272 68.44L440.124 68.9635L440.127 68.959L439.272 68.44ZM504.912 52.72L505.375 51.8336L504.912 52.72ZM521.832 68.44L520.977 68.959L520.98 68.9635L521.832 68.44ZM521.832 113.68L522.684 114.204L522.687 114.199L521.832 113.68ZM504.912 129.28L505.375 130.166L504.912 129.28ZM490.032 109.48L490.546 110.338L490.553 110.333L490.032 109.48ZM496.872 102.16L497.752 102.634L497.757 102.625L496.872 102.16ZM496.872 79.96L495.986 80.4249L495.991 80.4341L496.872 79.96ZM490.032 72.64L489.5 73.4866L489.514 73.4954L489.528 73.5038L490.032 72.64ZM470.952 72.64L471.466 73.4975L471.473 73.4933L470.952 72.64ZM464.232 79.96L465.112 80.4341L465.117 80.4248L464.232 79.96ZM464.232 102.16L463.346 102.625L463.351 102.634L464.232 102.16ZM470.952 109.48L470.42 110.327L470.434 110.335L470.448 110.344L470.952 109.48ZM480.552 133.92C471.655 133.92 463.696 132.071 456.655 128.394L455.729 130.166C463.087 134.009 471.369 135.92 480.552 135.92V133.92ZM456.655 128.394C449.608 124.714 444.105 119.636 440.124 113.156L438.42 114.204C442.599 121.004 448.376 126.326 455.729 130.166L456.655 128.394ZM440.127 113.161C436.148 106.608 434.152 99.23 434.152 91H432.152C432.152 99.57 434.236 107.312 438.417 114.199L440.127 113.161ZM434.152 91C434.152 82.7699 436.148 75.4338 440.124 68.9635L438.42 67.9165C434.236 74.7262 432.152 82.4301 432.152 91H434.152ZM440.127 68.959C444.109 62.4002 449.611 57.2849 456.655 53.6064L455.729 51.8336C448.373 55.6751 442.595 61.0397 438.417 67.921L440.127 68.959ZM456.655 53.6064C463.696 49.9291 471.655 48.08 480.552 48.08V46.08C471.369 46.08 463.087 47.9909 455.729 51.8336L456.655 53.6064ZM480.552 48.08C489.449 48.08 497.407 49.9291 504.449 53.6064L505.375 51.8336C498.016 47.9909 489.735 46.08 480.552 46.08V48.08ZM504.449 53.6064C511.493 57.2849 516.995 62.4002 520.977 68.959L522.687 67.921C518.509 61.0397 512.731 55.6751 505.375 51.8336L504.449 53.6064ZM520.98 68.9635C524.956 75.4338 526.952 82.7699 526.952 91H528.952C528.952 82.4301 526.868 74.7262 522.684 67.9165L520.98 68.9635ZM526.952 91C526.952 99.23 524.956 106.608 520.977 113.161L522.687 114.199C526.868 107.312 528.952 99.57 528.952 91H526.952ZM520.98 113.156C516.999 119.636 511.496 124.714 504.449 128.394L505.375 130.166C512.728 126.326 518.505 121.004 522.684 114.204L520.98 113.156ZM504.449 128.394C497.407 132.071 489.449 133.92 480.552 133.92V135.92C489.735 135.92 498.016 134.009 505.375 130.166L504.449 128.394ZM480.552 113C484.238 113 487.579 112.118 490.546 110.337L489.517 108.623C486.885 110.202 483.905 111 480.552 111V113ZM490.553 110.333C493.592 108.476 495.993 105.902 497.752 102.634L495.991 101.686C494.391 104.658 492.232 106.964 489.51 108.627L490.553 110.333ZM497.757 102.625C499.525 99.2585 500.392 95.3739 500.392 91H498.392C498.392 95.1061 497.579 98.6615 495.986 101.695L497.757 102.625ZM500.392 91C500.392 86.6269 499.525 82.7777 497.752 79.4859L495.991 80.4341C497.579 83.3823 498.392 86.8931 498.392 91H500.392ZM497.757 79.4952C495.998 76.1435 493.591 73.5587 490.536 71.7762L489.528 73.5038C492.232 75.0813 494.386 77.3765 495.986 80.4248L497.757 79.4952ZM490.564 71.7934C487.594 69.9266 484.247 69 480.552 69V71C483.896 71 486.87 71.8334 489.5 73.4866L490.564 71.7934ZM480.552 69C476.856 69 473.474 69.9265 470.43 71.7867L471.473 73.4933C474.189 71.8335 477.208 71 480.552 71V69ZM470.437 71.7825C467.464 73.5668 465.102 76.1506 463.346 79.4952L465.117 80.4248C466.721 77.3694 468.84 75.0732 471.466 73.4975L470.437 71.7825ZM463.351 79.4859C461.579 82.7777 460.712 86.6269 460.712 91H462.712C462.712 86.8931 463.525 83.3823 465.112 80.4341L463.351 79.4859ZM460.712 91C460.712 95.3739 461.579 99.2585 463.346 102.625L465.117 101.695C463.525 98.6615 462.712 95.1061 462.712 91H460.712ZM463.351 102.634C465.107 105.895 467.463 108.468 470.42 110.327L471.484 108.633C468.841 106.972 466.716 104.665 465.112 101.686L463.351 102.634ZM470.448 110.344C473.49 112.118 476.865 113 480.552 113V111C477.199 111 474.174 110.202 471.456 108.616L470.448 110.344ZM621.031 49H622.031V48H621.031V49ZM621.031 133V134H622.031V133H621.031ZM597.751 133L596.984 133.642L597.283 134H597.751V133ZM565.831 94.84L566.598 94.1984L564.831 92.0859V94.84H565.831ZM565.831 133V134H566.831V133H565.831ZM538.231 133H537.231V134H538.231V133ZM538.231 49V48H537.231V49H538.231ZM561.511 49L562.278 48.3584L561.978 48H561.511V49ZM593.431 87.16L592.664 87.8016L594.431 89.9141V87.16H593.431ZM593.431 49V48H592.431V49H593.431ZM620.031 49V133H622.031V49H620.031ZM621.031 132H597.751V134H621.031V132ZM598.518 132.358L566.598 94.1984L565.064 95.4816L596.984 133.642L598.518 132.358ZM564.831 94.84V133H566.831V94.84H564.831ZM565.831 132H538.231V134H565.831V132ZM539.231 133V49H537.231V133H539.231ZM538.231 50H561.511V48H538.231V50ZM560.744 49.6416L592.664 87.8016L594.198 86.5184L562.278 48.3584L560.744 49.6416ZM594.431 87.16V49H592.431V87.16H594.431ZM593.431 50H621.031V48H593.431V50ZM695.396 52.84L694.99 53.7538L695.396 52.84ZM708.716 63.88L707.878 64.425V64.425L708.716 63.88ZM708.716 97.48L707.878 96.935L708.716 97.48ZM695.396 108.52L694.99 107.606L695.396 108.52ZM662.996 112.36V111.36H661.996V112.36H662.996ZM662.996 133V134H663.996V133H662.996ZM634.676 133H633.676V134H634.676V133ZM634.676 49V48H633.676V49H634.676ZM681.956 88L682.614 88.7526L682.623 88.745L682.632 88.7372L681.956 88ZM681.956 73.48L681.28 74.2172L681.289 74.225L681.297 74.2326L681.956 73.48ZM662.996 70.84V69.84H661.996V70.84H662.996ZM662.996 90.52H661.996V91.52H662.996V90.52ZM675.116 50C682.768 50 689.384 51.2622 694.99 53.7538L695.802 51.9262C689.888 49.2978 682.984 48 675.116 48V50ZM694.99 53.7538C700.592 56.2435 704.873 59.8034 707.878 64.425L709.554 63.335C706.318 58.3566 701.72 54.5565 695.802 51.9262L694.99 53.7538ZM707.878 64.425C710.88 69.0441 712.396 74.4499 712.396 80.68H714.396C714.396 74.1101 712.792 68.3159 709.554 63.335L707.878 64.425ZM712.396 80.68C712.396 86.9101 710.88 92.3159 707.878 96.935L709.554 98.025C712.792 93.0441 714.396 87.2499 714.396 80.68H712.396ZM707.878 96.935C704.873 101.557 700.592 105.116 694.99 107.606L695.802 109.434C701.72 106.804 706.318 103.003 709.554 98.025L707.878 96.935ZM694.99 107.606C689.384 110.098 682.768 111.36 675.116 111.36V113.36C682.984 113.36 689.888 112.062 695.802 109.434L694.99 107.606ZM675.116 111.36H662.996V113.36H675.116V111.36ZM661.996 112.36V133H663.996V112.36H661.996ZM662.996 132H634.676V134H662.996V132ZM635.676 133V49H633.676V133H635.676ZM634.676 50H675.116V48H634.676V50ZM673.316 91.52C677.28 91.52 680.439 90.6558 682.614 88.7526L681.297 87.2474C679.633 88.7042 677.032 89.52 673.316 89.52V91.52ZM682.632 88.7372C684.799 86.7505 685.836 84.0201 685.836 80.68H683.836C683.836 83.5799 682.953 85.7295 681.28 87.2628L682.632 88.7372ZM685.836 80.68C685.836 77.3415 684.799 74.6389 682.614 72.7274L681.297 74.2326C682.953 75.6811 683.836 77.7785 683.836 80.68H685.836ZM682.632 72.7428C680.456 70.7488 677.29 69.84 673.316 69.84V71.84C677.022 71.84 679.616 72.6912 681.28 74.2172L682.632 72.7428ZM673.316 69.84H662.996V71.84H673.316V69.84ZM661.996 70.84V90.52H663.996V70.84H661.996ZM662.996 91.52H673.316V89.52H662.996V91.52ZM722.684 49V48H721.684V49H722.684ZM751.004 49H752.004V48H751.004V49ZM751.004 133V134H752.004V133H751.004ZM722.684 133H721.684V134H722.684V133ZM722.684 50H751.004V48H722.684V50ZM750.004 49V133H752.004V49H750.004ZM751.004 132H722.684V134H751.004V132ZM723.684 133V49H721.684V133H723.684ZM834.477 111.64H835.477V110.64H834.477V111.64ZM834.477 133V134H835.477V133H834.477ZM764.637 133H763.637V134H764.637V133ZM764.637 49V48H763.637V49H764.637ZM832.917 49H833.917V48H832.917V49ZM832.917 70.36V71.36H833.917V70.36H832.917ZM792.477 70.36V69.36H791.477V70.36H792.477ZM792.477 80.2H791.477V81.2H792.477V80.2ZM827.997 80.2H828.997V79.2H827.997V80.2ZM827.997 100.6V101.6H828.997V100.6H827.997ZM792.477 100.6V99.6H791.477V100.6H792.477ZM792.477 111.64H791.477V112.64H792.477V111.64ZM833.477 111.64V133H835.477V111.64H833.477ZM834.477 132H764.637V134H834.477V132ZM765.637 133V49H763.637V133H765.637ZM764.637 50H832.917V48H764.637V50ZM831.917 49V70.36H833.917V49H831.917ZM832.917 69.36H792.477V71.36H832.917V69.36ZM791.477 70.36V80.2H793.477V70.36H791.477ZM792.477 81.2H827.997V79.2H792.477V81.2ZM826.997 80.2V100.6H828.997V80.2H826.997ZM827.997 99.6H792.477V101.6H827.997V99.6ZM791.477 100.6V111.64H793.477V100.6H791.477ZM792.477 112.64H834.477V110.64H792.477V112.64Z" fill="#F7ECDA" fill-opacity="0.5"/>
<path d="M-328.699 133L-329.699 133.006L-329.693 134H-328.699V133ZM-328.939 94.72L-327.939 94.7137L-327.962 91.1151L-329.799 94.2095L-328.939 94.72ZM-347.179 125.44V126.44H-346.61L-346.319 125.951L-347.179 125.44ZM-359.659 125.44L-360.509 125.967L-360.215 126.44H-359.659V125.44ZM-377.899 96.04L-377.049 95.5128L-378.899 92.5313V96.04H-377.899ZM-377.899 133V134H-376.899V133H-377.899ZM-403.699 133H-404.699V134H-403.699V133ZM-403.699 49V48H-404.699V49H-403.699ZM-380.419 49L-379.566 48.4785L-379.858 48H-380.419V49ZM-353.059 93.76L-353.912 94.2815L-353.048 95.6961L-352.2 94.2714L-353.059 93.76ZM-326.419 49V48H-326.988L-327.278 48.4886L-326.419 49ZM-303.139 49L-302.139 48.9971L-302.142 48H-303.139V49ZM-302.899 133V134H-301.896L-301.899 132.997L-302.899 133ZM-327.699 132.994L-327.939 94.7137L-329.939 94.7263L-329.699 133.006L-327.699 132.994ZM-329.799 94.2095L-348.039 124.929L-346.319 125.951L-328.079 95.2305L-329.799 94.2095ZM-347.179 124.44H-359.659V126.44H-347.179V124.44ZM-358.809 124.913L-377.049 95.5128L-378.749 96.5672L-360.509 125.967L-358.809 124.913ZM-378.899 96.04V133H-376.899V96.04H-378.899ZM-377.899 132H-403.699V134H-377.899V132ZM-402.699 133V49H-404.699V133H-402.699ZM-403.699 50H-380.419V48H-403.699V50ZM-381.272 49.5215L-353.912 94.2815L-352.206 93.2385L-379.566 48.4785L-381.272 49.5215ZM-352.2 94.2714L-325.56 49.5114L-327.278 48.4886L-353.918 93.2486L-352.2 94.2714ZM-326.419 50H-303.139V48H-326.419V50ZM-304.139 49.0028L-303.899 133.003L-301.899 132.997L-302.139 48.9971L-304.139 49.0028ZM-302.899 132H-328.699V134H-302.899V132ZM-269.527 129.28L-269.064 128.394L-269.527 129.28ZM-286.447 113.68L-287.302 114.199L-287.299 114.204L-286.447 113.68ZM-286.447 68.44L-285.595 68.9635L-285.592 68.959L-286.447 68.44ZM-220.807 52.72L-220.344 51.8336L-220.807 52.72ZM-203.887 68.44L-204.742 68.959L-204.739 68.9635L-203.887 68.44ZM-203.887 113.68L-203.035 114.204L-203.032 114.199L-203.887 113.68ZM-220.807 129.28L-220.344 130.166L-220.807 129.28ZM-235.687 109.48L-235.172 110.338L-235.165 110.333L-235.687 109.48ZM-228.847 102.16L-227.966 102.634L-227.961 102.625L-228.847 102.16ZM-228.847 79.96L-229.732 80.4249L-229.727 80.4341L-228.847 79.96ZM-235.687 72.64L-236.219 73.4866L-236.205 73.4954L-236.191 73.5038L-235.687 72.64ZM-254.767 72.64L-254.252 73.4975L-254.245 73.4933L-254.767 72.64ZM-261.487 79.96L-260.606 80.4341L-260.601 80.4248L-261.487 79.96ZM-261.487 102.16L-262.372 102.625L-262.367 102.634L-261.487 102.16ZM-254.767 109.48L-255.299 110.327L-255.285 110.335L-255.271 110.344L-254.767 109.48ZM-245.167 133.92C-254.064 133.92 -262.022 132.071 -269.064 128.394L-269.99 130.166C-262.631 134.009 -254.35 135.92 -245.167 135.92V133.92ZM-269.064 128.394C-276.111 124.714 -281.614 119.636 -285.595 113.156L-287.299 114.204C-283.12 121.004 -277.343 126.326 -269.99 130.166L-269.064 128.394ZM-285.592 113.161C-289.571 106.608 -291.567 99.23 -291.567 91H-293.567C-293.567 99.57 -291.483 107.312 -287.302 114.199L-285.592 113.161ZM-291.567 91C-291.567 82.7699 -289.571 75.4338 -285.595 68.9635L-287.299 67.9165C-291.483 74.7262 -293.567 82.4301 -293.567 91H-291.567ZM-285.592 68.959C-281.61 62.4002 -276.108 57.2849 -269.064 53.6064L-269.99 51.8336C-277.346 55.6751 -283.124 61.0397 -287.302 67.921L-285.592 68.959ZM-269.064 53.6064C-262.022 49.9291 -254.064 48.08 -245.167 48.08V46.08C-254.35 46.08 -262.631 47.9909 -269.99 51.8336L-269.064 53.6064ZM-245.167 48.08C-236.27 48.08 -228.311 49.9291 -221.27 53.6064L-220.344 51.8336C-227.702 47.9909 -235.984 46.08 -245.167 46.08V48.08ZM-221.27 53.6064C-214.226 57.2849 -208.724 62.4002 -204.742 68.959L-203.032 67.921C-207.21 61.0397 -212.988 55.6751 -220.344 51.8336L-221.27 53.6064ZM-204.739 68.9635C-200.763 75.4338 -198.767 82.7699 -198.767 91H-196.767C-196.767 82.4301 -198.851 74.7262 -203.035 67.9165L-204.739 68.9635ZM-198.767 91C-198.767 99.23 -200.763 106.608 -204.742 113.161L-203.032 114.199C-198.851 107.312 -196.767 99.57 -196.767 91H-198.767ZM-204.739 113.156C-208.72 119.636 -214.223 124.714 -221.27 128.394L-220.344 130.166C-212.991 126.326 -207.214 121.004 -203.035 114.204L-204.739 113.156ZM-221.27 128.394C-228.311 132.071 -236.27 133.92 -245.167 133.92V135.92C-235.984 135.92 -227.702 134.009 -220.344 130.166L-221.27 128.394ZM-245.167 113C-241.48 113 -238.14 112.118 -235.172 110.337L-236.201 108.623C-238.834 110.202 -241.813 111 -245.167 111V113ZM-235.165 110.333C-232.127 108.476 -229.726 105.902 -227.966 102.634L-229.727 101.686C-231.328 104.658 -233.487 106.964 -236.208 108.627L-235.165 110.333ZM-227.961 102.625C-226.194 99.2585 -225.327 95.3739 -225.327 91H-227.327C-227.327 95.1061 -228.14 98.6615 -229.732 101.695L-227.961 102.625ZM-225.327 91C-225.327 86.6269 -226.194 82.7777 -227.966 79.4859L-229.727 80.4341C-228.14 83.3823 -227.327 86.8931 -227.327 91H-225.327ZM-227.961 79.4952C-229.721 76.1435 -232.127 73.5587 -235.183 71.7762L-236.191 73.5038C-233.486 75.0813 -231.333 77.3765 -229.732 80.4248L-227.961 79.4952ZM-235.155 71.7934C-238.124 69.9266 -241.471 69 -245.167 69V71C-241.823 71 -238.849 71.8334 -236.219 73.4866L-235.155 71.7934ZM-245.167 69C-248.863 69 -252.244 69.9265 -255.288 71.7867L-254.245 73.4933C-251.529 71.8335 -248.511 71 -245.167 71V69ZM-255.281 71.7825C-258.255 73.5668 -260.616 76.1506 -262.372 79.4952L-260.601 80.4248C-258.997 77.3694 -256.879 75.0732 -254.252 73.4975L-255.281 71.7825ZM-262.367 79.4859C-264.14 82.7777 -265.007 86.6269 -265.007 91H-263.007C-263.007 86.8931 -262.194 83.3823 -260.606 80.4341L-262.367 79.4859ZM-265.007 91C-265.007 95.3739 -264.14 99.2585 -262.372 102.625L-260.601 101.695C-262.194 98.6615 -263.007 95.1061 -263.007 91H-265.007ZM-262.367 102.634C-260.611 105.895 -258.256 108.468 -255.299 110.327L-254.235 108.633C-256.878 106.972 -259.002 104.665 -260.606 101.686L-262.367 102.634ZM-255.271 110.344C-252.229 112.118 -248.854 113 -245.167 113V111C-248.52 111 -251.545 110.202 -254.263 108.616L-255.271 110.344ZM-167.808 129.28L-167.345 128.394L-167.808 129.28ZM-184.728 113.68L-185.583 114.199L-185.58 114.204L-184.728 113.68ZM-184.728 68.44L-183.876 68.9635L-183.873 68.959L-184.728 68.44ZM-119.088 52.72L-118.625 51.8336L-119.088 52.72ZM-102.168 68.44L-103.023 68.959L-103.02 68.9635L-102.168 68.44ZM-102.168 113.68L-101.316 114.204L-101.313 114.199L-102.168 113.68ZM-119.088 129.28L-118.625 130.166L-119.088 129.28ZM-133.968 109.48L-133.454 110.338L-133.447 110.333L-133.968 109.48ZM-127.128 102.16L-126.248 102.634L-126.243 102.625L-127.128 102.16ZM-127.128 79.96L-128.014 80.4249L-128.009 80.4341L-127.128 79.96ZM-133.968 72.64L-134.5 73.4866L-134.486 73.4954L-134.472 73.5038L-133.968 72.64ZM-153.048 72.64L-152.534 73.4975L-152.527 73.4933L-153.048 72.64ZM-159.768 79.96L-158.888 80.4341L-158.883 80.4248L-159.768 79.96ZM-159.768 102.16L-160.654 102.625L-160.649 102.634L-159.768 102.16ZM-153.048 109.48L-153.58 110.327L-153.566 110.335L-153.552 110.344L-153.048 109.48ZM-143.448 133.92C-152.345 133.92 -160.304 132.071 -167.345 128.394L-168.271 130.166C-160.913 134.009 -152.631 135.92 -143.448 135.92V133.92ZM-167.345 128.394C-174.392 124.714 -179.895 119.636 -183.876 113.156L-185.58 114.204C-181.401 121.004 -175.624 126.326 -168.271 130.166L-167.345 128.394ZM-183.873 113.161C-187.852 106.608 -189.848 99.23 -189.848 91H-191.848C-191.848 99.57 -189.764 107.312 -185.583 114.199L-183.873 113.161ZM-189.848 91C-189.848 82.7699 -187.852 75.4338 -183.876 68.9635L-185.58 67.9165C-189.764 74.7262 -191.848 82.4301 -191.848 91H-189.848ZM-183.873 68.959C-179.891 62.4002 -174.389 57.2849 -167.345 53.6064L-168.271 51.8336C-175.627 55.6751 -181.405 61.0397 -185.583 67.921L-183.873 68.959ZM-167.345 53.6064C-160.304 49.9291 -152.345 48.08 -143.448 48.08V46.08C-152.631 46.08 -160.913 47.9909 -168.271 51.8336L-167.345 53.6064ZM-143.448 48.08C-134.551 48.08 -126.593 49.9291 -119.551 53.6064L-118.625 51.8336C-125.984 47.9909 -134.265 46.08 -143.448 46.08V48.08ZM-119.551 53.6064C-112.507 57.2849 -107.005 62.4002 -103.023 68.959L-101.313 67.921C-105.491 61.0397 -111.269 55.6751 -118.625 51.8336L-119.551 53.6064ZM-103.02 68.9635C-99.0444 75.4338 -97.0481 82.7699 -97.0481 91H-95.0481C-95.0481 82.4301 -97.1318 74.7262 -101.316 67.9165L-103.02 68.9635ZM-97.0481 91C-97.0481 99.23 -99.0444 106.608 -103.023 113.161L-101.313 114.199C-97.1318 107.312 -95.0481 99.57 -95.0481 91H-97.0481ZM-103.02 113.156C-107.001 119.636 -112.504 124.714 -119.551 128.394L-118.625 130.166C-111.272 126.326 -105.495 121.004 -101.316 114.204L-103.02 113.156ZM-119.551 128.394C-126.593 132.071 -134.551 133.92 -143.448 133.92V135.92C-134.265 135.92 -125.984 134.009 -118.625 130.166L-119.551 128.394ZM-143.448 113C-139.762 113 -136.421 112.118 -133.454 110.337L-134.483 108.623C-137.115 110.202 -140.095 111 -143.448 111V113ZM-133.447 110.333C-130.408 108.476 -128.007 105.902 -126.248 102.634L-128.009 101.686C-129.609 104.658 -131.768 106.964 -134.49 108.627L-133.447 110.333ZM-126.243 102.625C-124.475 99.2585 -123.608 95.3739 -123.608 91H-125.608C-125.608 95.1061 -126.421 98.6615 -128.014 101.695L-126.243 102.625ZM-123.608 91C-123.608 86.6269 -124.475 82.7777 -126.248 79.4859L-128.009 80.4341C-126.421 83.3823 -125.608 86.8931 -125.608 91H-123.608ZM-126.243 79.4952C-128.002 76.1435 -130.409 73.5587 -133.464 71.7762L-134.472 73.5038C-131.768 75.0813 -129.614 77.3765 -128.014 80.4248L-126.243 79.4952ZM-133.436 71.7934C-136.406 69.9266 -139.753 69 -143.448 69V71C-140.104 71 -137.13 71.8334 -134.5 73.4866L-133.436 71.7934ZM-143.448 69C-147.144 69 -150.526 69.9265 -153.57 71.7867L-152.527 73.4933C-149.811 71.8335 -146.792 71 -143.448 71V69ZM-153.563 71.7825C-156.536 73.5668 -158.898 76.1506 -160.654 79.4952L-158.883 80.4248C-157.279 77.3694 -155.16 75.0732 -152.534 73.4975L-153.563 71.7825ZM-160.649 79.4859C-162.421 82.7777 -163.288 86.6269 -163.288 91H-161.288C-161.288 86.8931 -160.475 83.3823 -158.888 80.4341L-160.649 79.4859ZM-163.288 91C-163.288 95.3739 -162.421 99.2585 -160.654 102.625L-158.883 101.695C-160.475 98.6615 -161.288 95.1061 -161.288 91H-163.288ZM-160.649 102.634C-158.893 105.895 -156.537 108.468 -153.58 110.327L-152.516 108.633C-155.159 106.972 -157.284 104.665 -158.888 101.686L-160.649 102.634ZM-153.552 110.344C-150.51 112.118 -147.135 113 -143.448 113V111C-146.801 111 -149.826 110.202 -152.544 108.616L-153.552 110.344ZM-2.96936 49H-1.96936V48H-2.96936V49ZM-2.96936 133V134H-1.96936V133H-2.96936ZM-26.2494 133L-27.0164 133.642L-26.7166 134H-26.2494V133ZM-58.1694 94.84L-57.4023 94.1984L-59.1694 92.0859V94.84H-58.1694ZM-58.1694 133V134H-57.1694V133H-58.1694ZM-85.7694 133H-86.7694V134H-85.7694V133ZM-85.7694 49V48H-86.7694V49H-85.7694ZM-62.4894 49L-61.7224 48.3584L-62.0221 48H-62.4894V49ZM-30.5694 87.16L-31.3364 87.8016L-29.5694 89.9141V87.16H-30.5694ZM-30.5694 49V48H-31.5694V49H-30.5694ZM-3.96936 49V133H-1.96936V49H-3.96936ZM-2.96936 132H-26.2494V134H-2.96936V132ZM-25.4823 132.358L-57.4023 94.1984L-58.9364 95.4816L-27.0164 133.642L-25.4823 132.358ZM-59.1694 94.84V133H-57.1694V94.84H-59.1694ZM-58.1694 132H-85.7694V134H-58.1694V132ZM-84.7694 133V49H-86.7694V133H-84.7694ZM-85.7694 50H-62.4894V48H-85.7694V50ZM-63.2564 49.6416L-31.3364 87.8016L-29.8023 86.5184L-61.7224 48.3584L-63.2564 49.6416ZM-29.5694 87.16V49H-31.5694V87.16H-29.5694ZM-30.5694 50H-2.96936V48H-30.5694V50ZM71.3959 52.84L70.9898 53.7538L71.3959 52.84ZM84.7159 63.88L83.8775 64.425V64.425L84.7159 63.88ZM84.7159 97.48L83.8775 96.935L84.7159 97.48ZM71.3959 108.52L70.9898 107.606L71.3959 108.52ZM38.9959 112.36V111.36H37.9959V112.36H38.9959ZM38.9959 133V134H39.9959V133H38.9959ZM10.6759 133H9.67593V134H10.6759V133ZM10.6759 49V48H9.67593V49H10.6759ZM57.9559 88L58.6144 88.7526L58.6232 88.745L58.6317 88.7372L57.9559 88ZM57.9559 73.48L57.2802 74.2172L57.2888 74.225L57.2974 74.2326L57.9559 73.48ZM38.9959 70.84V69.84H37.9959V70.84H38.9959ZM38.9959 90.52H37.9959V91.52H38.9959V90.52ZM51.116 50C58.7675 50 65.3836 51.2622 70.9898 53.7538L71.8021 51.9262C65.8882 49.2978 58.9844 48 51.116 48V50ZM70.9898 53.7538C76.5916 56.2435 80.8734 59.8034 83.8775 64.425L85.5544 63.335C82.3184 58.3566 77.7203 54.5565 71.8021 51.9262L70.9898 53.7538ZM83.8775 64.425C86.8799 69.0441 88.3959 74.4499 88.3959 80.68H90.3959C90.3959 74.1101 88.792 68.3159 85.5544 63.335L83.8775 64.425ZM88.3959 80.68C88.3959 86.9101 86.8799 92.3159 83.8775 96.935L85.5544 98.025C88.792 93.0441 90.3959 87.2499 90.3959 80.68H88.3959ZM83.8775 96.935C80.8734 101.557 76.5916 105.116 70.9898 107.606L71.8021 109.434C77.7203 106.804 82.3184 103.003 85.5544 98.025L83.8775 96.935ZM70.9898 107.606C65.3836 110.098 58.7675 111.36 51.116 111.36V113.36C58.9844 113.36 65.8882 112.062 71.8021 109.434L70.9898 107.606ZM51.116 111.36H38.9959V113.36H51.116V111.36ZM37.9959 112.36V133H39.9959V112.36H37.9959ZM38.9959 132H10.6759V134H38.9959V132ZM11.6759 133V49H9.67593V133H11.6759ZM10.6759 50H51.116V48H10.6759V50ZM49.3159 91.52C53.2797 91.52 56.4393 90.6558 58.6144 88.7526L57.2974 87.2474C55.6326 88.7042 53.0322 89.52 49.3159 89.52V91.52ZM58.6317 88.7372C60.7989 86.7505 61.8359 84.0201 61.8359 80.68H59.8359C59.8359 83.5799 58.953 85.7295 57.2802 87.2628L58.6317 88.7372ZM61.8359 80.68C61.8359 77.3415 60.7991 74.6389 58.6144 72.7274L57.2974 74.2326C58.9528 75.6811 59.8359 77.7785 59.8359 80.68H61.8359ZM58.6317 72.7428C56.4563 70.7488 53.2896 69.84 49.3159 69.84V71.84C53.0223 71.84 55.6155 72.6912 57.2802 74.2172L58.6317 72.7428ZM49.3159 69.84H38.9959V71.84H49.3159V69.84ZM37.9959 70.84V90.52H39.9959V70.84H37.9959ZM38.9959 91.52H49.3159V89.52H38.9959V91.52ZM98.6838 49V48H97.6838V49H98.6838ZM127.004 49H128.004V48H127.004V49ZM127.004 133V134H128.004V133H127.004ZM98.6838 133H97.6838V134H98.6838V133ZM98.6838 50H127.004V48H98.6838V50ZM126.004 49V133H128.004V49H126.004ZM127.004 132H98.6838V134H127.004V132ZM99.6838 133V49H97.6838V133H99.6838ZM210.477 111.64H211.477V110.64H210.477V111.64ZM210.477 133V134H211.477V133H210.477ZM140.637 133H139.637V134H140.637V133ZM140.637 49V48H139.637V49H140.637ZM208.917 49H209.917V48H208.917V49ZM208.917 70.36V71.36H209.917V70.36H208.917ZM168.477 70.36V69.36H167.477V70.36H168.477ZM168.477 80.2H167.477V81.2H168.477V80.2ZM203.997 80.2H204.997V79.2H203.997V80.2ZM203.997 100.6V101.6H204.997V100.6H203.997ZM168.477 100.6V99.6H167.477V100.6H168.477ZM168.477 111.64H167.477V112.64H168.477V111.64ZM209.477 111.64V133H211.477V111.64H209.477ZM210.477 132H140.637V134H210.477V132ZM141.637 133V49H139.637V133H141.637ZM140.637 50H208.917V48H140.637V50ZM207.917 49V70.36H209.917V49H207.917ZM208.917 69.36H168.477V71.36H208.917V69.36ZM167.477 70.36V80.2H169.477V70.36H167.477ZM168.477 81.2H203.997V79.2H168.477V81.2ZM202.997 80.2V100.6H204.997V80.2H202.997ZM203.997 99.6H168.477V101.6H203.997V99.6ZM167.477 100.6V111.64H169.477V100.6H167.477ZM168.477 112.64H210.477V110.64H168.477V112.64Z" fill="#F7ECDA" fill-opacity="0.5"/>
</svg>
