<svg width="1440" height="154" viewBox="0 0 1440 154" fill="none" xmlns="http://www.w3.org/2000/svg">
<path d="M65.3009 133L64.301 133.006L64.3072 134H65.3009V133ZM65.0609 94.72L66.0609 94.7137L66.0384 91.1151L64.2011 94.2095L65.0609 94.72ZM46.8209 125.44V126.44H47.3902L47.6808 125.951L46.8209 125.44ZM34.3409 125.44L33.4912 125.967L33.7845 126.44H34.3409V125.44ZM16.1009 96.04L16.9507 95.5128L15.1009 92.5313V96.04H16.1009ZM16.1009 133V134H17.1009V133H16.1009ZM-9.69906 133H-10.6991V134H-9.69906V133ZM-9.69906 49V48H-10.6991V49H-9.69906ZM13.5809 49L14.4342 48.4785L14.1417 48H13.5809V49ZM40.9409 93.76L40.0877 94.2815L40.9524 95.6961L41.8003 94.2714L40.9409 93.76ZM67.5809 49V48H67.0124L66.7216 48.4886L67.5809 49ZM90.8609 49L91.8609 48.9971L91.8581 48H90.8609V49ZM91.1009 133V134H92.1038L92.1009 132.997L91.1009 133ZM66.3009 132.994L66.0609 94.7137L64.061 94.7263L64.301 133.006L66.3009 132.994ZM64.2011 94.2095L45.9611 124.929L47.6808 125.951L65.9208 95.2305L64.2011 94.2095ZM46.8209 124.44H34.3409V126.44H46.8209V124.44ZM35.1907 124.913L16.9507 95.5128L15.2512 96.5672L33.4912 125.967L35.1907 124.913ZM15.1009 96.04V133H17.1009V96.04H15.1009ZM16.1009 132H-9.69906V134H16.1009V132ZM-8.69906 133V49H-10.6991V133H-8.69906ZM-9.69906 50H13.5809V48H-9.69906V50ZM12.7277 49.5215L40.0877 94.2815L41.7942 93.2385L14.4342 48.4785L12.7277 49.5215ZM41.8003 94.2714L68.4403 49.5114L66.7216 48.4886L40.0816 93.2486L41.8003 94.2714ZM67.5809 50H90.8609V48H67.5809V50ZM89.8609 49.0028L90.1009 133.003L92.1009 132.997L91.8609 48.9971L89.8609 49.0028ZM91.1009 132H65.3009V134H91.1009V132ZM124.473 129.28L124.936 128.394L124.473 129.28ZM107.553 113.68L106.698 114.199L106.701 114.204L107.553 113.68ZM107.553 68.44L108.405 68.9635L108.408 68.959L107.553 68.44ZM173.193 52.72L173.656 51.8336L173.193 52.72ZM190.113 68.44L189.258 68.959L189.261 68.9635L190.113 68.44ZM190.113 113.68L190.965 114.204L190.968 114.199L190.113 113.68ZM173.193 129.28L173.656 130.166L173.193 129.28ZM158.313 109.48L158.828 110.338L158.835 110.333L158.313 109.48ZM165.153 102.16L166.034 102.634L166.039 102.625L165.153 102.16ZM165.153 79.96L164.268 80.4249L164.273 80.4341L165.153 79.96ZM158.313 72.64L157.781 73.4866L157.795 73.4954L157.809 73.5038L158.313 72.64ZM139.233 72.64L139.748 73.4975L139.755 73.4933L139.233 72.64ZM132.513 79.96L133.394 80.4341L133.399 80.4248L132.513 79.96ZM132.513 102.16L131.628 102.625L131.633 102.634L132.513 102.16ZM139.233 109.48L138.701 110.327L138.715 110.335L138.729 110.344L139.233 109.48ZM148.833 133.92C139.936 133.92 131.978 132.071 124.936 128.394L124.01 130.166C131.369 134.009 139.65 135.92 148.833 135.92V133.92ZM124.936 128.394C117.889 124.714 112.386 119.636 108.405 113.156L106.701 114.204C110.88 121.004 116.657 126.326 124.01 130.166L124.936 128.394ZM108.408 113.161C104.429 106.608 102.433 99.23 102.433 91H100.433C100.433 99.57 102.517 107.312 106.698 114.199L108.408 113.161ZM102.433 91C102.433 82.7699 104.429 75.4338 108.405 68.9635L106.701 67.9165C102.517 74.7262 100.433 82.4301 100.433 91H102.433ZM108.408 68.959C112.39 62.4002 117.892 57.2849 124.936 53.6064L124.01 51.8336C116.654 55.6751 110.876 61.0397 106.698 67.921L108.408 68.959ZM124.936 53.6064C131.978 49.9291 139.936 48.08 148.833 48.08V46.08C139.65 46.08 131.369 47.9909 124.01 51.8336L124.936 53.6064ZM148.833 48.08C157.73 48.08 165.689 49.9291 172.73 53.6064L173.656 51.8336C166.298 47.9909 158.016 46.08 148.833 46.08V48.08ZM172.73 53.6064C179.774 57.2849 185.276 62.4002 189.258 68.959L190.968 67.921C186.79 61.0397 181.012 55.6751 173.656 51.8336L172.73 53.6064ZM189.261 68.9635C193.237 75.4338 195.233 82.7699 195.233 91H197.233C197.233 82.4301 195.149 74.7262 190.965 67.9165L189.261 68.9635ZM195.233 91C195.233 99.23 193.237 106.608 189.258 113.161L190.968 114.199C195.149 107.312 197.233 99.57 197.233 91H195.233ZM189.261 113.156C185.28 119.636 179.777 124.714 172.73 128.394L173.656 130.166C181.009 126.326 186.786 121.004 190.965 114.204L189.261 113.156ZM172.73 128.394C165.689 132.071 157.73 133.92 148.833 133.92V135.92C158.016 135.92 166.298 134.009 173.656 130.166L172.73 128.394ZM148.833 113C152.52 113 155.86 112.118 158.828 110.337L157.799 108.623C155.166 110.202 152.187 111 148.833 111V113ZM158.835 110.333C161.873 108.476 164.274 105.902 166.034 102.634L164.273 101.686C162.672 104.658 160.513 106.964 157.792 108.627L158.835 110.333ZM166.039 102.625C167.806 99.2585 168.673 95.3739 168.673 91H166.673C166.673 95.1061 165.86 98.6615 164.268 101.695L166.039 102.625ZM168.673 91C168.673 86.6269 167.806 82.7777 166.034 79.4859L164.273 80.4341C165.86 83.3823 166.673 86.8931 166.673 91H168.673ZM166.039 79.4952C164.279 76.1435 161.873 73.5587 158.817 71.7762L157.809 73.5038C160.514 75.0813 162.667 77.3765 164.268 80.4248L166.039 79.4952ZM158.845 71.7934C155.876 69.9266 152.529 69 148.833 69V71C152.177 71 155.151 71.8334 157.781 73.4866L158.845 71.7934ZM148.833 69C145.137 69 141.756 69.9265 138.712 71.7867L139.755 73.4933C142.471 71.8335 145.489 71 148.833 71V69ZM138.719 71.7825C135.745 73.5668 133.384 76.1506 131.628 79.4952L133.399 80.4248C135.003 77.3694 137.121 75.0732 139.748 73.4975L138.719 71.7825ZM131.633 79.4859C129.86 82.7777 128.993 86.6269 128.993 91H130.993C130.993 86.8931 131.806 83.3823 133.394 80.4341L131.633 79.4859ZM128.993 91C128.993 95.3739 129.86 99.2585 131.628 102.625L133.399 101.695C131.806 98.6615 130.993 95.1061 130.993 91H128.993ZM131.633 102.634C133.389 105.895 135.744 108.468 138.701 110.327L139.765 108.633C137.122 106.972 134.998 104.665 133.394 101.686L131.633 102.634ZM138.729 110.344C141.771 112.118 145.146 113 148.833 113V111C145.48 111 142.455 110.202 139.737 108.616L138.729 110.344ZM226.192 129.28L226.655 128.394L226.192 129.28ZM209.272 113.68L208.417 114.199L208.42 114.204L209.272 113.68ZM209.272 68.44L210.124 68.9635L210.127 68.959L209.272 68.44ZM274.912 52.72L275.375 51.8336L274.912 52.72ZM291.832 68.44L290.977 68.959L290.98 68.9635L291.832 68.44ZM291.832 113.68L292.684 114.204L292.687 114.199L291.832 113.68ZM274.912 129.28L275.375 130.166L274.912 129.28ZM260.032 109.48L260.546 110.338L260.553 110.333L260.032 109.48ZM266.872 102.16L267.752 102.634L267.757 102.625L266.872 102.16ZM266.872 79.96L265.986 80.4249L265.991 80.4341L266.872 79.96ZM260.032 72.64L259.5 73.4866L259.514 73.4954L259.528 73.5038L260.032 72.64ZM240.952 72.64L241.466 73.4975L241.473 73.4933L240.952 72.64ZM234.232 79.96L235.112 80.4341L235.117 80.4248L234.232 79.96ZM234.232 102.16L233.346 102.625L233.351 102.634L234.232 102.16ZM240.952 109.48L240.42 110.327L240.434 110.335L240.448 110.344L240.952 109.48ZM250.552 133.92C241.655 133.92 233.696 132.071 226.655 128.394L225.729 130.166C233.087 134.009 241.369 135.92 250.552 135.92V133.92ZM226.655 128.394C219.608 124.714 214.105 119.636 210.124 113.156L208.42 114.204C212.599 121.004 218.376 126.326 225.729 130.166L226.655 128.394ZM210.127 113.161C206.148 106.608 204.152 99.23 204.152 91H202.152C202.152 99.57 204.236 107.312 208.417 114.199L210.127 113.161ZM204.152 91C204.152 82.7699 206.148 75.4338 210.124 68.9635L208.42 67.9165C204.236 74.7262 202.152 82.4301 202.152 91H204.152ZM210.127 68.959C214.109 62.4002 219.611 57.2849 226.655 53.6064L225.729 51.8336C218.373 55.6751 212.595 61.0397 208.417 67.921L210.127 68.959ZM226.655 53.6064C233.696 49.9291 241.655 48.08 250.552 48.08V46.08C241.369 46.08 233.087 47.9909 225.729 51.8336L226.655 53.6064ZM250.552 48.08C259.449 48.08 267.407 49.9291 274.449 53.6064L275.375 51.8336C268.016 47.9909 259.735 46.08 250.552 46.08V48.08ZM274.449 53.6064C281.493 57.2849 286.995 62.4002 290.977 68.959L292.687 67.921C288.509 61.0397 282.731 55.6751 275.375 51.8336L274.449 53.6064ZM290.98 68.9635C294.956 75.4338 296.952 82.7699 296.952 91H298.952C298.952 82.4301 296.868 74.7262 292.684 67.9165L290.98 68.9635ZM296.952 91C296.952 99.23 294.956 106.608 290.977 113.161L292.687 114.199C296.868 107.312 298.952 99.57 298.952 91H296.952ZM290.98 113.156C286.999 119.636 281.496 124.714 274.449 128.394L275.375 130.166C282.728 126.326 288.505 121.004 292.684 114.204L290.98 113.156ZM274.449 128.394C267.407 132.071 259.449 133.92 250.552 133.92V135.92C259.735 135.92 268.016 134.009 275.375 130.166L274.449 128.394ZM250.552 113C254.238 113 257.579 112.118 260.546 110.337L259.517 108.623C256.885 110.202 253.905 111 250.552 111V113ZM260.553 110.333C263.592 108.476 265.993 105.902 267.752 102.634L265.991 101.686C264.391 104.658 262.232 106.964 259.51 108.627L260.553 110.333ZM267.757 102.625C269.525 99.2585 270.392 95.3739 270.392 91H268.392C268.392 95.1061 267.579 98.6615 265.986 101.695L267.757 102.625ZM270.392 91C270.392 86.6269 269.525 82.7777 267.752 79.4859L265.991 80.4341C267.579 83.3823 268.392 86.8931 268.392 91H270.392ZM267.757 79.4952C265.998 76.1435 263.591 73.5587 260.536 71.7762L259.528 73.5038C262.232 75.0813 264.386 77.3765 265.986 80.4248L267.757 79.4952ZM260.564 71.7934C257.594 69.9266 254.247 69 250.552 69V71C253.896 71 256.87 71.8334 259.5 73.4866L260.564 71.7934ZM250.552 69C246.856 69 243.474 69.9265 240.43 71.7867L241.473 73.4933C244.189 71.8335 247.208 71 250.552 71V69ZM240.437 71.7825C237.464 73.5668 235.102 76.1506 233.346 79.4952L235.117 80.4248C236.721 77.3694 238.84 75.0732 241.466 73.4975L240.437 71.7825ZM233.351 79.4859C231.579 82.7777 230.712 86.6269 230.712 91H232.712C232.712 86.8931 233.525 83.3823 235.112 80.4341L233.351 79.4859ZM230.712 91C230.712 95.3739 231.579 99.2585 233.346 102.625L235.117 101.695C233.525 98.6615 232.712 95.1061 232.712 91H230.712ZM233.351 102.634C235.107 105.895 237.463 108.468 240.42 110.327L241.484 108.633C238.841 106.972 236.716 104.665 235.112 101.686L233.351 102.634ZM240.448 110.344C243.49 112.118 246.865 113 250.552 113V111C247.199 111 244.174 110.202 241.456 108.616L240.448 110.344ZM391.031 49H392.031V48H391.031V49ZM391.031 133V134H392.031V133H391.031ZM367.751 133L366.984 133.642L367.283 134H367.751V133ZM335.831 94.84L336.598 94.1984L334.831 92.0859V94.84H335.831ZM335.831 133V134H336.831V133H335.831ZM308.231 133H307.231V134H308.231V133ZM308.231 49V48H307.231V49H308.231ZM331.511 49L332.278 48.3584L331.978 48H331.511V49ZM363.431 87.16L362.664 87.8016L364.431 89.9141V87.16H363.431ZM363.431 49V48H362.431V49H363.431ZM390.031 49V133H392.031V49H390.031ZM391.031 132H367.751V134H391.031V132ZM368.518 132.358L336.598 94.1984L335.064 95.4816L366.984 133.642L368.518 132.358ZM334.831 94.84V133H336.831V94.84H334.831ZM335.831 132H308.231V134H335.831V132ZM309.231 133V49H307.231V133H309.231ZM308.231 50H331.511V48H308.231V50ZM330.744 49.6416L362.664 87.8016L364.198 86.5184L332.278 48.3584L330.744 49.6416ZM364.431 87.16V49H362.431V87.16H364.431ZM363.431 50H391.031V48H363.431V50ZM465.396 52.84L464.99 53.7538L465.396 52.84ZM478.716 63.88L477.878 64.425V64.425L478.716 63.88ZM478.716 97.48L477.878 96.935L478.716 97.48ZM465.396 108.52L464.99 107.606L465.396 108.52ZM432.996 112.36V111.36H431.996V112.36H432.996ZM432.996 133V134H433.996V133H432.996ZM404.676 133H403.676V134H404.676V133ZM404.676 49V48H403.676V49H404.676ZM451.956 88L452.614 88.7526L452.623 88.745L452.632 88.7372L451.956 88ZM451.956 73.48L451.28 74.2172L451.289 74.225L451.297 74.2326L451.956 73.48ZM432.996 70.84V69.84H431.996V70.84H432.996ZM432.996 90.52H431.996V91.52H432.996V90.52ZM445.116 50C452.768 50 459.384 51.2622 464.99 53.7538L465.802 51.9262C459.888 49.2978 452.984 48 445.116 48V50ZM464.99 53.7538C470.592 56.2435 474.873 59.8034 477.878 64.425L479.554 63.335C476.318 58.3566 471.72 54.5565 465.802 51.9262L464.99 53.7538ZM477.878 64.425C480.88 69.0441 482.396 74.4499 482.396 80.68H484.396C484.396 74.1101 482.792 68.3159 479.554 63.335L477.878 64.425ZM482.396 80.68C482.396 86.9101 480.88 92.3159 477.878 96.935L479.554 98.025C482.792 93.0441 484.396 87.2499 484.396 80.68H482.396ZM477.878 96.935C474.873 101.557 470.592 105.116 464.99 107.606L465.802 109.434C471.72 106.804 476.318 103.003 479.554 98.025L477.878 96.935ZM464.99 107.606C459.384 110.098 452.768 111.36 445.116 111.36V113.36C452.984 113.36 459.888 112.062 465.802 109.434L464.99 107.606ZM445.116 111.36H432.996V113.36H445.116V111.36ZM431.996 112.36V133H433.996V112.36H431.996ZM432.996 132H404.676V134H432.996V132ZM405.676 133V49H403.676V133H405.676ZM404.676 50H445.116V48H404.676V50ZM443.316 91.52C447.28 91.52 450.439 90.6558 452.614 88.7526L451.297 87.2474C449.633 88.7042 447.032 89.52 443.316 89.52V91.52ZM452.632 88.7372C454.799 86.7505 455.836 84.0201 455.836 80.68H453.836C453.836 83.5799 452.953 85.7295 451.28 87.2628L452.632 88.7372ZM455.836 80.68C455.836 77.3415 454.799 74.6389 452.614 72.7274L451.297 74.2326C452.953 75.6811 453.836 77.7785 453.836 80.68H455.836ZM452.632 72.7428C450.456 70.7488 447.29 69.84 443.316 69.84V71.84C447.022 71.84 449.616 72.6912 451.28 74.2172L452.632 72.7428ZM443.316 69.84H432.996V71.84H443.316V69.84ZM431.996 70.84V90.52H433.996V70.84H431.996ZM432.996 91.52H443.316V89.52H432.996V91.52ZM492.684 49V48H491.684V49H492.684ZM521.004 49H522.004V48H521.004V49ZM521.004 133V134H522.004V133H521.004ZM492.684 133H491.684V134H492.684V133ZM492.684 50H521.004V48H492.684V50ZM520.004 49V133H522.004V49H520.004ZM521.004 132H492.684V134H521.004V132ZM493.684 133V49H491.684V133H493.684ZM604.477 111.64H605.477V110.64H604.477V111.64ZM604.477 133V134H605.477V133H604.477ZM534.637 133H533.637V134H534.637V133ZM534.637 49V48H533.637V49H534.637ZM602.917 49H603.917V48H602.917V49ZM602.917 70.36V71.36H603.917V70.36H602.917ZM562.477 70.36V69.36H561.477V70.36H562.477ZM562.477 80.2H561.477V81.2H562.477V80.2ZM597.997 80.2H598.997V79.2H597.997V80.2ZM597.997 100.6V101.6H598.997V100.6H597.997ZM562.477 100.6V99.6H561.477V100.6H562.477ZM562.477 111.64H561.477V112.64H562.477V111.64ZM603.477 111.64V133H605.477V111.64H603.477ZM604.477 132H534.637V134H604.477V132ZM535.637 133V49H533.637V133H535.637ZM534.637 50H602.917V48H534.637V50ZM601.917 49V70.36H603.917V49H601.917ZM602.917 69.36H562.477V71.36H602.917V69.36ZM561.477 70.36V80.2H563.477V70.36H561.477ZM562.477 81.2H597.997V79.2H562.477V81.2ZM596.997 80.2V100.6H598.997V80.2H596.997ZM597.997 99.6H562.477V101.6H597.997V99.6ZM561.477 100.6V111.64H563.477V100.6H561.477ZM562.477 112.64H604.477V110.64H562.477V112.64Z" fill="#F7ECDA" fill-opacity="0.5"/>
<path d="M691.301 133L690.301 133.006L690.307 134H691.301V133ZM691.061 94.72L692.061 94.7137L692.038 91.1151L690.201 94.2095L691.061 94.72ZM672.821 125.44V126.44H673.39L673.681 125.951L672.821 125.44ZM660.341 125.44L659.491 125.967L659.785 126.44H660.341V125.44ZM642.101 96.04L642.951 95.5128L641.101 92.5313V96.04H642.101ZM642.101 133V134H643.101V133H642.101ZM616.301 133H615.301V134H616.301V133ZM616.301 49V48H615.301V49H616.301ZM639.581 49L640.434 48.4785L640.142 48H639.581V49ZM666.941 93.76L666.088 94.2815L666.952 95.6961L667.8 94.2714L666.941 93.76ZM693.581 49V48H693.012L692.722 48.4886L693.581 49ZM716.861 49L717.861 48.9971L717.858 48H716.861V49ZM717.101 133V134H718.104L718.101 132.997L717.101 133ZM692.301 132.994L692.061 94.7137L690.061 94.7263L690.301 133.006L692.301 132.994ZM690.201 94.2095L671.961 124.929L673.681 125.951L691.921 95.2305L690.201 94.2095ZM672.821 124.44H660.341V126.44H672.821V124.44ZM661.191 124.913L642.951 95.5128L641.251 96.5672L659.491 125.967L661.191 124.913ZM641.101 96.04V133H643.101V96.04H641.101ZM642.101 132H616.301V134H642.101V132ZM617.301 133V49H615.301V133H617.301ZM616.301 50H639.581V48H616.301V50ZM638.728 49.5215L666.088 94.2815L667.794 93.2385L640.434 48.4785L638.728 49.5215ZM667.8 94.2714L694.44 49.5114L692.722 48.4886L666.082 93.2486L667.8 94.2714ZM693.581 50H716.861V48H693.581V50ZM715.861 49.0028L716.101 133.003L718.101 132.997L717.861 48.9971L715.861 49.0028ZM717.101 132H691.301V134H717.101V132ZM750.473 129.28L750.936 128.394L750.473 129.28ZM733.553 113.68L732.698 114.199L732.701 114.204L733.553 113.68ZM733.553 68.44L734.405 68.9635L734.408 68.959L733.553 68.44ZM799.193 52.72L799.656 51.8336L799.193 52.72ZM816.113 68.44L815.258 68.959L815.261 68.9635L816.113 68.44ZM816.113 113.68L816.965 114.204L816.968 114.199L816.113 113.68ZM799.193 129.28L799.656 130.166L799.193 129.28ZM784.313 109.48L784.828 110.338L784.835 110.333L784.313 109.48ZM791.153 102.16L792.034 102.634L792.039 102.625L791.153 102.16ZM791.153 79.96L790.268 80.4249L790.273 80.4341L791.153 79.96ZM784.313 72.64L783.781 73.4866L783.795 73.4954L783.809 73.5038L784.313 72.64ZM765.233 72.64L765.748 73.4975L765.755 73.4933L765.233 72.64ZM758.513 79.96L759.394 80.4341L759.399 80.4248L758.513 79.96ZM758.513 102.16L757.628 102.625L757.633 102.634L758.513 102.16ZM765.233 109.48L764.701 110.327L764.715 110.335L764.729 110.344L765.233 109.48ZM774.833 133.92C765.936 133.92 757.978 132.071 750.936 128.394L750.01 130.166C757.369 134.009 765.65 135.92 774.833 135.92V133.92ZM750.936 128.394C743.889 124.714 738.386 119.636 734.405 113.156L732.701 114.204C736.88 121.004 742.657 126.326 750.01 130.166L750.936 128.394ZM734.408 113.161C730.429 106.608 728.433 99.23 728.433 91H726.433C726.433 99.57 728.517 107.312 732.698 114.199L734.408 113.161ZM728.433 91C728.433 82.7699 730.429 75.4338 734.405 68.9635L732.701 67.9165C728.517 74.7262 726.433 82.4301 726.433 91H728.433ZM734.408 68.959C738.39 62.4002 743.892 57.2849 750.936 53.6064L750.01 51.8336C742.654 55.6751 736.876 61.0397 732.698 67.921L734.408 68.959ZM750.936 53.6064C757.978 49.9291 765.936 48.08 774.833 48.08V46.08C765.65 46.08 757.369 47.9909 750.01 51.8336L750.936 53.6064ZM774.833 48.08C783.73 48.08 791.689 49.9291 798.73 53.6064L799.656 51.8336C792.298 47.9909 784.016 46.08 774.833 46.08V48.08ZM798.73 53.6064C805.774 57.2849 811.276 62.4002 815.258 68.959L816.968 67.921C812.79 61.0397 807.012 55.6751 799.656 51.8336L798.73 53.6064ZM815.261 68.9635C819.237 75.4338 821.233 82.7699 821.233 91H823.233C823.233 82.4301 821.149 74.7262 816.965 67.9165L815.261 68.9635ZM821.233 91C821.233 99.23 819.237 106.608 815.258 113.161L816.968 114.199C821.149 107.312 823.233 99.57 823.233 91H821.233ZM815.261 113.156C811.28 119.636 805.777 124.714 798.73 128.394L799.656 130.166C807.009 126.326 812.786 121.004 816.965 114.204L815.261 113.156ZM798.73 128.394C791.689 132.071 783.73 133.92 774.833 133.92V135.92C784.016 135.92 792.298 134.009 799.656 130.166L798.73 128.394ZM774.833 113C778.52 113 781.86 112.118 784.828 110.337L783.799 108.623C781.166 110.202 778.187 111 774.833 111V113ZM784.835 110.333C787.873 108.476 790.274 105.902 792.034 102.634L790.273 101.686C788.672 104.658 786.513 106.964 783.792 108.627L784.835 110.333ZM792.039 102.625C793.806 99.2585 794.673 95.3739 794.673 91H792.673C792.673 95.1061 791.86 98.6615 790.268 101.695L792.039 102.625ZM794.673 91C794.673 86.6269 793.806 82.7777 792.034 79.4859L790.273 80.4341C791.86 83.3823 792.673 86.8931 792.673 91H794.673ZM792.039 79.4952C790.279 76.1435 787.873 73.5587 784.817 71.7762L783.809 73.5038C786.514 75.0813 788.667 77.3765 790.268 80.4248L792.039 79.4952ZM784.845 71.7934C781.876 69.9266 778.529 69 774.833 69V71C778.177 71 781.151 71.8334 783.781 73.4866L784.845 71.7934ZM774.833 69C771.137 69 767.756 69.9265 764.712 71.7867L765.755 73.4933C768.471 71.8335 771.489 71 774.833 71V69ZM764.719 71.7825C761.745 73.5668 759.384 76.1506 757.628 79.4952L759.399 80.4248C761.003 77.3694 763.121 75.0732 765.748 73.4975L764.719 71.7825ZM757.633 79.4859C755.86 82.7777 754.993 86.6269 754.993 91H756.993C756.993 86.8931 757.806 83.3823 759.394 80.4341L757.633 79.4859ZM754.993 91C754.993 95.3739 755.86 99.2585 757.628 102.625L759.399 101.695C757.806 98.6615 756.993 95.1061 756.993 91H754.993ZM757.633 102.634C759.389 105.895 761.744 108.468 764.701 110.327L765.765 108.633C763.122 106.972 760.998 104.665 759.394 101.686L757.633 102.634ZM764.729 110.344C767.771 112.118 771.146 113 774.833 113V111C771.48 111 768.455 110.202 765.737 108.616L764.729 110.344ZM852.192 129.28L852.655 128.394L852.192 129.28ZM835.272 113.68L834.417 114.199L834.42 114.204L835.272 113.68ZM835.272 68.44L836.124 68.9635L836.127 68.959L835.272 68.44ZM900.912 52.72L901.375 51.8336L900.912 52.72ZM917.832 68.44L916.977 68.959L916.98 68.9635L917.832 68.44ZM917.832 113.68L918.684 114.204L918.687 114.199L917.832 113.68ZM900.912 129.28L901.375 130.166L900.912 129.28ZM886.032 109.48L886.546 110.338L886.553 110.333L886.032 109.48ZM892.872 102.16L893.752 102.634L893.757 102.625L892.872 102.16ZM892.872 79.96L891.986 80.4249L891.991 80.4341L892.872 79.96ZM886.032 72.64L885.5 73.4866L885.514 73.4954L885.528 73.5038L886.032 72.64ZM866.952 72.64L867.466 73.4975L867.473 73.4933L866.952 72.64ZM860.232 79.96L861.112 80.4341L861.117 80.4248L860.232 79.96ZM860.232 102.16L859.346 102.625L859.351 102.634L860.232 102.16ZM866.952 109.48L866.42 110.327L866.434 110.335L866.448 110.344L866.952 109.48ZM876.552 133.92C867.655 133.92 859.696 132.071 852.655 128.394L851.729 130.166C859.087 134.009 867.369 135.92 876.552 135.92V133.92ZM852.655 128.394C845.608 124.714 840.105 119.636 836.124 113.156L834.42 114.204C838.599 121.004 844.376 126.326 851.729 130.166L852.655 128.394ZM836.127 113.161C832.148 106.608 830.152 99.23 830.152 91H828.152C828.152 99.57 830.236 107.312 834.417 114.199L836.127 113.161ZM830.152 91C830.152 82.7699 832.148 75.4338 836.124 68.9635L834.42 67.9165C830.236 74.7262 828.152 82.4301 828.152 91H830.152ZM836.127 68.959C840.109 62.4002 845.611 57.2849 852.655 53.6064L851.729 51.8336C844.373 55.6751 838.595 61.0397 834.417 67.921L836.127 68.959ZM852.655 53.6064C859.696 49.9291 867.655 48.08 876.552 48.08V46.08C867.369 46.08 859.087 47.9909 851.729 51.8336L852.655 53.6064ZM876.552 48.08C885.449 48.08 893.407 49.9291 900.449 53.6064L901.375 51.8336C894.016 47.9909 885.735 46.08 876.552 46.08V48.08ZM900.449 53.6064C907.493 57.2849 912.995 62.4002 916.977 68.959L918.687 67.921C914.509 61.0397 908.731 55.6751 901.375 51.8336L900.449 53.6064ZM916.98 68.9635C920.956 75.4338 922.952 82.7699 922.952 91H924.952C924.952 82.4301 922.868 74.7262 918.684 67.9165L916.98 68.9635ZM922.952 91C922.952 99.23 920.956 106.608 916.977 113.161L918.687 114.199C922.868 107.312 924.952 99.57 924.952 91H922.952ZM916.98 113.156C912.999 119.636 907.496 124.714 900.449 128.394L901.375 130.166C908.728 126.326 914.505 121.004 918.684 114.204L916.98 113.156ZM900.449 128.394C893.407 132.071 885.449 133.92 876.552 133.92V135.92C885.735 135.92 894.016 134.009 901.375 130.166L900.449 128.394ZM876.552 113C880.238 113 883.579 112.118 886.546 110.337L885.517 108.623C882.885 110.202 879.905 111 876.552 111V113ZM886.553 110.333C889.592 108.476 891.993 105.902 893.752 102.634L891.991 101.686C890.391 104.658 888.232 106.964 885.51 108.627L886.553 110.333ZM893.757 102.625C895.525 99.2585 896.392 95.3739 896.392 91H894.392C894.392 95.1061 893.579 98.6615 891.986 101.695L893.757 102.625ZM896.392 91C896.392 86.6269 895.525 82.7777 893.752 79.4859L891.991 80.4341C893.579 83.3823 894.392 86.8931 894.392 91H896.392ZM893.757 79.4952C891.998 76.1435 889.591 73.5587 886.536 71.7762L885.528 73.5038C888.232 75.0813 890.386 77.3765 891.986 80.4248L893.757 79.4952ZM886.564 71.7934C883.594 69.9266 880.247 69 876.552 69V71C879.896 71 882.87 71.8334 885.5 73.4866L886.564 71.7934ZM876.552 69C872.856 69 869.474 69.9265 866.43 71.7867L867.473 73.4933C870.189 71.8335 873.208 71 876.552 71V69ZM866.437 71.7825C863.464 73.5668 861.102 76.1506 859.346 79.4952L861.117 80.4248C862.721 77.3694 864.84 75.0732 867.466 73.4975L866.437 71.7825ZM859.351 79.4859C857.579 82.7777 856.712 86.6269 856.712 91H858.712C858.712 86.8931 859.525 83.3823 861.112 80.4341L859.351 79.4859ZM856.712 91C856.712 95.3739 857.579 99.2585 859.346 102.625L861.117 101.695C859.525 98.6615 858.712 95.1061 858.712 91H856.712ZM859.351 102.634C861.107 105.895 863.463 108.468 866.42 110.327L867.484 108.633C864.841 106.972 862.716 104.665 861.112 101.686L859.351 102.634ZM866.448 110.344C869.49 112.118 872.865 113 876.552 113V111C873.199 111 870.174 110.202 867.456 108.616L866.448 110.344ZM1017.03 49H1018.03V48H1017.03V49ZM1017.03 133V134H1018.03V133H1017.03ZM993.751 133L992.984 133.642L993.283 134H993.751V133ZM961.831 94.84L962.598 94.1984L960.831 92.0859V94.84H961.831ZM961.831 133V134H962.831V133H961.831ZM934.231 133H933.231V134H934.231V133ZM934.231 49V48H933.231V49H934.231ZM957.511 49L958.278 48.3584L957.978 48H957.511V49ZM989.431 87.16L988.664 87.8016L990.431 89.9141V87.16H989.431ZM989.431 49V48H988.431V49H989.431ZM1016.03 49V133H1018.03V49H1016.03ZM1017.03 132H993.751V134H1017.03V132ZM994.518 132.358L962.598 94.1984L961.064 95.4816L992.984 133.642L994.518 132.358ZM960.831 94.84V133H962.831V94.84H960.831ZM961.831 132H934.231V134H961.831V132ZM935.231 133V49H933.231V133H935.231ZM934.231 50H957.511V48H934.231V50ZM956.744 49.6416L988.664 87.8016L990.198 86.5184L958.278 48.3584L956.744 49.6416ZM990.431 87.16V49H988.431V87.16H990.431ZM989.431 50H1017.03V48H989.431V50ZM1091.4 52.84L1090.99 53.7538L1091.4 52.84ZM1104.72 63.88L1103.88 64.425V64.425L1104.72 63.88ZM1104.72 97.48L1103.88 96.935L1104.72 97.48ZM1091.4 108.52L1090.99 107.606L1091.4 108.52ZM1059 112.36V111.36H1058V112.36H1059ZM1059 133V134H1060V133H1059ZM1030.68 133H1029.68V134H1030.68V133ZM1030.68 49V48H1029.68V49H1030.68ZM1077.96 88L1078.61 88.7526L1078.62 88.745L1078.63 88.7372L1077.96 88ZM1077.96 73.48L1077.28 74.2172L1077.29 74.225L1077.3 74.2326L1077.96 73.48ZM1059 70.84V69.84H1058V70.84H1059ZM1059 90.52H1058V91.52H1059V90.52ZM1071.12 50C1078.77 50 1085.38 51.2622 1090.99 53.7538L1091.8 51.9262C1085.89 49.2978 1078.98 48 1071.12 48V50ZM1090.99 53.7538C1096.59 56.2435 1100.87 59.8034 1103.88 64.425L1105.55 63.335C1102.32 58.3566 1097.72 54.5565 1091.8 51.9262L1090.99 53.7538ZM1103.88 64.425C1106.88 69.0441 1108.4 74.4499 1108.4 80.68H1110.4C1110.4 74.1101 1108.79 68.3159 1105.55 63.335L1103.88 64.425ZM1108.4 80.68C1108.4 86.9101 1106.88 92.3159 1103.88 96.935L1105.55 98.025C1108.79 93.0441 1110.4 87.2499 1110.4 80.68H1108.4ZM1103.88 96.935C1100.87 101.557 1096.59 105.116 1090.99 107.606L1091.8 109.434C1097.72 106.804 1102.32 103.003 1105.55 98.025L1103.88 96.935ZM1090.99 107.606C1085.38 110.098 1078.77 111.36 1071.12 111.36V113.36C1078.98 113.36 1085.89 112.062 1091.8 109.434L1090.99 107.606ZM1071.12 111.36H1059V113.36H1071.12V111.36ZM1058 112.36V133H1060V112.36H1058ZM1059 132H1030.68V134H1059V132ZM1031.68 133V49H1029.68V133H1031.68ZM1030.68 50H1071.12V48H1030.68V50ZM1069.32 91.52C1073.28 91.52 1076.44 90.6558 1078.61 88.7526L1077.3 87.2474C1075.63 88.7042 1073.03 89.52 1069.32 89.52V91.52ZM1078.63 88.7372C1080.8 86.7505 1081.84 84.0201 1081.84 80.68H1079.84C1079.84 83.5799 1078.95 85.7295 1077.28 87.2628L1078.63 88.7372ZM1081.84 80.68C1081.84 77.3415 1080.8 74.6389 1078.61 72.7274L1077.3 74.2326C1078.95 75.6811 1079.84 77.7785 1079.84 80.68H1081.84ZM1078.63 72.7428C1076.46 70.7488 1073.29 69.84 1069.32 69.84V71.84C1073.02 71.84 1075.62 72.6912 1077.28 74.2172L1078.63 72.7428ZM1069.32 69.84H1059V71.84H1069.32V69.84ZM1058 70.84V90.52H1060V70.84H1058ZM1059 91.52H1069.32V89.52H1059V91.52ZM1118.68 49V48H1117.68V49H1118.68ZM1147 49H1148V48H1147V49ZM1147 133V134H1148V133H1147ZM1118.68 133H1117.68V134H1118.68V133ZM1118.68 50H1147V48H1118.68V50ZM1146 49V133H1148V49H1146ZM1147 132H1118.68V134H1147V132ZM1119.68 133V49H1117.68V133H1119.68ZM1230.48 111.64H1231.48V110.64H1230.48V111.64ZM1230.48 133V134H1231.48V133H1230.48ZM1160.64 133H1159.64V134H1160.64V133ZM1160.64 49V48H1159.64V49H1160.64ZM1228.92 49H1229.92V48H1228.92V49ZM1228.92 70.36V71.36H1229.92V70.36H1228.92ZM1188.48 70.36V69.36H1187.48V70.36H1188.48ZM1188.48 80.2H1187.48V81.2H1188.48V80.2ZM1224 80.2H1225V79.2H1224V80.2ZM1224 100.6V101.6H1225V100.6H1224ZM1188.48 100.6V99.6H1187.48V100.6H1188.48ZM1188.48 111.64H1187.48V112.64H1188.48V111.64ZM1229.48 111.64V133H1231.48V111.64H1229.48ZM1230.48 132H1160.64V134H1230.48V132ZM1161.64 133V49H1159.64V133H1161.64ZM1160.64 50H1228.92V48H1160.64V50ZM1227.92 49V70.36H1229.92V49H1227.92ZM1228.92 69.36H1188.48V71.36H1228.92V69.36ZM1187.48 70.36V80.2H1189.48V70.36H1187.48ZM1188.48 81.2H1224V79.2H1188.48V81.2ZM1223 80.2V100.6H1225V80.2H1223ZM1224 99.6H1188.48V101.6H1224V99.6ZM1187.48 100.6V111.64H1189.48V100.6H1187.48ZM1188.48 112.64H1230.48V110.64H1188.48V112.64Z" fill="#F7ECDA" fill-opacity="0.5"/>
<path d="M1317.3 133L1316.3 133.006L1316.31 134H1317.3V133ZM1317.06 94.72L1318.06 94.7137L1318.04 91.1151L1316.2 94.2095L1317.06 94.72ZM1298.82 125.44V126.44H1299.39L1299.68 125.951L1298.82 125.44ZM1286.34 125.44L1285.49 125.967L1285.78 126.44H1286.34V125.44ZM1268.1 96.04L1268.95 95.5128L1267.1 92.5313V96.04H1268.1ZM1268.1 133V134H1269.1V133H1268.1ZM1242.3 133H1241.3V134H1242.3V133ZM1242.3 49V48H1241.3V49H1242.3ZM1265.58 49L1266.43 48.4785L1266.14 48H1265.58V49ZM1292.94 93.76L1292.09 94.2815L1292.95 95.6961L1293.8 94.2714L1292.94 93.76ZM1319.58 49V48H1319.01L1318.72 48.4886L1319.58 49ZM1342.86 49L1343.86 48.9971L1343.86 48H1342.86V49ZM1343.1 133V134H1344.1L1344.1 132.997L1343.1 133ZM1318.3 132.994L1318.06 94.7137L1316.06 94.7263L1316.3 133.006L1318.3 132.994ZM1316.2 94.2095L1297.96 124.929L1299.68 125.951L1317.92 95.2305L1316.2 94.2095ZM1298.82 124.44H1286.34V126.44H1298.82V124.44ZM1287.19 124.913L1268.95 95.5128L1267.25 96.5672L1285.49 125.967L1287.19 124.913ZM1267.1 96.04V133H1269.1V96.04H1267.1ZM1268.1 132H1242.3V134H1268.1V132ZM1243.3 133V49H1241.3V133H1243.3ZM1242.3 50H1265.58V48H1242.3V50ZM1264.73 49.5215L1292.09 94.2815L1293.79 93.2385L1266.43 48.4785L1264.73 49.5215ZM1293.8 94.2714L1320.44 49.5114L1318.72 48.4886L1292.08 93.2486L1293.8 94.2714ZM1319.58 50H1342.86V48H1319.58V50ZM1341.86 49.0028L1342.1 133.003L1344.1 132.997L1343.86 48.9971L1341.86 49.0028ZM1343.1 132H1317.3V134H1343.1V132ZM1376.47 129.28L1376.94 128.394L1376.47 129.28ZM1359.55 113.68L1358.7 114.199L1358.7 114.204L1359.55 113.68ZM1359.55 68.44L1360.41 68.9635L1360.41 68.959L1359.55 68.44ZM1425.19 52.72L1425.66 51.8336L1425.19 52.72ZM1442.11 68.44L1441.26 68.959L1441.26 68.9635L1442.11 68.44ZM1442.11 113.68L1442.97 114.204L1442.97 114.199L1442.11 113.68ZM1425.19 129.28L1425.66 130.166L1425.19 129.28ZM1410.31 109.48L1410.83 110.338L1410.83 110.333L1410.31 109.48ZM1417.15 102.16L1418.03 102.634L1418.04 102.625L1417.15 102.16ZM1417.15 79.96L1416.27 80.4249L1416.27 80.4341L1417.15 79.96ZM1410.31 72.64L1409.78 73.4866L1409.79 73.4954L1409.81 73.5038L1410.31 72.64ZM1391.23 72.64L1391.75 73.4975L1391.75 73.4933L1391.23 72.64ZM1384.51 79.96L1385.39 80.4341L1385.4 80.4248L1384.51 79.96ZM1384.51 102.16L1383.63 102.625L1383.63 102.634L1384.51 102.16ZM1391.23 109.48L1390.7 110.327L1390.71 110.335L1390.73 110.344L1391.23 109.48ZM1400.83 133.92C1391.94 133.92 1383.98 132.071 1376.94 128.394L1376.01 130.166C1383.37 134.009 1391.65 135.92 1400.83 135.92V133.92ZM1376.94 128.394C1369.89 124.714 1364.39 119.636 1360.41 113.156L1358.7 114.204C1362.88 121.004 1368.66 126.326 1376.01 130.166L1376.94 128.394ZM1360.41 113.161C1356.43 106.608 1354.43 99.23 1354.43 91H1352.43C1352.43 99.57 1354.52 107.312 1358.7 114.199L1360.41 113.161ZM1354.43 91C1354.43 82.7699 1356.43 75.4338 1360.41 68.9635L1358.7 67.9165C1354.52 74.7262 1352.43 82.4301 1352.43 91H1354.43ZM1360.41 68.959C1364.39 62.4002 1369.89 57.2849 1376.94 53.6064L1376.01 51.8336C1368.65 55.6751 1362.88 61.0397 1358.7 67.921L1360.41 68.959ZM1376.94 53.6064C1383.98 49.9291 1391.94 48.08 1400.83 48.08V46.08C1391.65 46.08 1383.37 47.9909 1376.01 51.8336L1376.94 53.6064ZM1400.83 48.08C1409.73 48.08 1417.69 49.9291 1424.73 53.6064L1425.66 51.8336C1418.3 47.9909 1410.02 46.08 1400.83 46.08V48.08ZM1424.73 53.6064C1431.77 57.2849 1437.28 62.4002 1441.26 68.959L1442.97 67.921C1438.79 61.0397 1433.01 55.6751 1425.66 51.8336L1424.73 53.6064ZM1441.26 68.9635C1445.24 75.4338 1447.23 82.7699 1447.23 91H1449.23C1449.23 82.4301 1447.15 74.7262 1442.97 67.9165L1441.26 68.9635ZM1447.23 91C1447.23 99.23 1445.24 106.608 1441.26 113.161L1442.97 114.199C1447.15 107.312 1449.23 99.57 1449.23 91H1447.23ZM1441.26 113.156C1437.28 119.636 1431.78 124.714 1424.73 128.394L1425.66 130.166C1433.01 126.326 1438.79 121.004 1442.97 114.204L1441.26 113.156ZM1424.73 128.394C1417.69 132.071 1409.73 133.92 1400.83 133.92V135.92C1410.02 135.92 1418.3 134.009 1425.66 130.166L1424.73 128.394ZM1400.83 113C1404.52 113 1407.86 112.118 1410.83 110.337L1409.8 108.623C1407.17 110.202 1404.19 111 1400.83 111V113ZM1410.83 110.333C1413.87 108.476 1416.27 105.902 1418.03 102.634L1416.27 101.686C1414.67 104.658 1412.51 106.964 1409.79 108.627L1410.83 110.333ZM1418.04 102.625C1419.81 99.2585 1420.67 95.3739 1420.67 91H1418.67C1418.67 95.1061 1417.86 98.6615 1416.27 101.695L1418.04 102.625ZM1420.67 91C1420.67 86.6269 1419.81 82.7777 1418.03 79.4859L1416.27 80.4341C1417.86 83.3823 1418.67 86.8931 1418.67 91H1420.67ZM1418.04 79.4952C1416.28 76.1435 1413.87 73.5587 1410.82 71.7762L1409.81 73.5038C1412.51 75.0813 1414.67 77.3765 1416.27 80.4248L1418.04 79.4952ZM1410.85 71.7934C1407.88 69.9266 1404.53 69 1400.83 69V71C1404.18 71 1407.15 71.8334 1409.78 73.4866L1410.85 71.7934ZM1400.83 69C1397.14 69 1393.76 69.9265 1390.71 71.7867L1391.75 73.4933C1394.47 71.8335 1397.49 71 1400.83 71V69ZM1390.72 71.7825C1387.74 73.5668 1385.38 76.1506 1383.63 79.4952L1385.4 80.4248C1387 77.3694 1389.12 75.0732 1391.75 73.4975L1390.72 71.7825ZM1383.63 79.4859C1381.86 82.7777 1380.99 86.6269 1380.99 91H1382.99C1382.99 86.8931 1383.81 83.3823 1385.39 80.4341L1383.63 79.4859ZM1380.99 91C1380.99 95.3739 1381.86 99.2585 1383.63 102.625L1385.4 101.695C1383.81 98.6615 1382.99 95.1061 1382.99 91H1380.99ZM1383.63 102.634C1385.39 105.895 1387.74 108.468 1390.7 110.327L1391.77 108.633C1389.12 106.972 1387 104.665 1385.39 101.686L1383.63 102.634ZM1390.73 110.344C1393.77 112.118 1397.15 113 1400.83 113V111C1397.48 111 1394.46 110.202 1391.74 108.616L1390.73 110.344ZM1478.19 129.28L1478.65 128.394L1478.19 129.28ZM1461.27 113.68L1460.42 114.199L1460.42 114.204L1461.27 113.68ZM1461.27 68.44L1462.12 68.9635L1462.13 68.959L1461.27 68.44ZM1526.91 52.72L1527.37 51.8336L1526.91 52.72ZM1543.83 68.44L1542.98 68.959L1542.98 68.9635L1543.83 68.44ZM1543.83 113.68L1544.68 114.204L1544.69 114.199L1543.83 113.68ZM1526.91 129.28L1527.37 130.166L1526.91 129.28ZM1512.03 109.48L1512.55 110.338L1512.55 110.333L1512.03 109.48ZM1518.87 102.16L1519.75 102.634L1519.76 102.625L1518.87 102.16ZM1518.87 79.96L1517.99 80.4249L1517.99 80.4341L1518.87 79.96ZM1512.03 72.64L1511.5 73.4866L1511.51 73.4954L1511.53 73.5038L1512.03 72.64ZM1492.95 72.64L1493.47 73.4975L1493.47 73.4933L1492.95 72.64ZM1486.23 79.96L1487.11 80.4341L1487.12 80.4248L1486.23 79.96ZM1486.23 102.16L1485.35 102.625L1485.35 102.634L1486.23 102.16ZM1492.95 109.48L1492.42 110.327L1492.43 110.335L1492.45 110.344L1492.95 109.48ZM1502.55 133.92C1493.65 133.92 1485.7 132.071 1478.65 128.394L1477.73 130.166C1485.09 134.009 1493.37 135.92 1502.55 135.92V133.92ZM1478.65 128.394C1471.61 124.714 1466.11 119.636 1462.12 113.156L1460.42 114.204C1464.6 121.004 1470.38 126.326 1477.73 130.166L1478.65 128.394ZM1462.13 113.161C1458.15 106.608 1456.15 99.23 1456.15 91H1454.15C1454.15 99.57 1456.24 107.312 1460.42 114.199L1462.13 113.161ZM1456.15 91C1456.15 82.7699 1458.15 75.4338 1462.12 68.9635L1460.42 67.9165C1456.24 74.7262 1454.15 82.4301 1454.15 91H1456.15ZM1462.13 68.959C1466.11 62.4002 1471.61 57.2849 1478.65 53.6064L1477.73 51.8336C1470.37 55.6751 1464.6 61.0397 1460.42 67.921L1462.13 68.959ZM1478.65 53.6064C1485.7 49.9291 1493.65 48.08 1502.55 48.08V46.08C1493.37 46.08 1485.09 47.9909 1477.73 51.8336L1478.65 53.6064ZM1502.55 48.08C1511.45 48.08 1519.41 49.9291 1526.45 53.6064L1527.37 51.8336C1520.02 47.9909 1511.73 46.08 1502.55 46.08V48.08ZM1526.45 53.6064C1533.49 57.2849 1538.99 62.4002 1542.98 68.959L1544.69 67.921C1540.51 61.0397 1534.73 55.6751 1527.37 51.8336L1526.45 53.6064ZM1542.98 68.9635C1546.96 75.4338 1548.95 82.7699 1548.95 91H1550.95C1550.95 82.4301 1548.87 74.7262 1544.68 67.9165L1542.98 68.9635ZM1548.95 91C1548.95 99.23 1546.96 106.608 1542.98 113.161L1544.69 114.199C1548.87 107.312 1550.95 99.57 1550.95 91H1548.95ZM1542.98 113.156C1539 119.636 1533.5 124.714 1526.45 128.394L1527.37 130.166C1534.73 126.326 1540.51 121.004 1544.68 114.204L1542.98 113.156ZM1526.45 128.394C1519.41 132.071 1511.45 133.92 1502.55 133.92V135.92C1511.73 135.92 1520.02 134.009 1527.37 130.166L1526.45 128.394ZM1502.55 113C1506.24 113 1509.58 112.118 1512.55 110.337L1511.52 108.623C1508.88 110.202 1505.91 111 1502.55 111V113ZM1512.55 110.333C1515.59 108.476 1517.99 105.902 1519.75 102.634L1517.99 101.686C1516.39 104.658 1514.23 106.964 1511.51 108.627L1512.55 110.333ZM1519.76 102.625C1521.52 99.2585 1522.39 95.3739 1522.39 91H1520.39C1520.39 95.1061 1519.58 98.6615 1517.99 101.695L1519.76 102.625ZM1522.39 91C1522.39 86.6269 1521.52 82.7777 1519.75 79.4859L1517.99 80.4341C1519.58 83.3823 1520.39 86.8931 1520.39 91H1522.39ZM1519.76 79.4952C1518 76.1435 1515.59 73.5587 1512.54 71.7762L1511.53 73.5038C1514.23 75.0813 1516.39 77.3765 1517.99 80.4248L1519.76 79.4952ZM1512.56 71.7934C1509.59 69.9266 1506.25 69 1502.55 69V71C1505.9 71 1508.87 71.8334 1511.5 73.4866L1512.56 71.7934ZM1502.55 69C1498.86 69 1495.47 69.9265 1492.43 71.7867L1493.47 73.4933C1496.19 71.8335 1499.21 71 1502.55 71V69ZM1492.44 71.7825C1489.46 73.5668 1487.1 76.1506 1485.35 79.4952L1487.12 80.4248C1488.72 77.3694 1490.84 75.0732 1493.47 73.4975L1492.44 71.7825ZM1485.35 79.4859C1483.58 82.7777 1482.71 86.6269 1482.71 91H1484.71C1484.71 86.8931 1485.52 83.3823 1487.11 80.4341L1485.35 79.4859ZM1482.71 91C1482.71 95.3739 1483.58 99.2585 1485.35 102.625L1487.12 101.695C1485.52 98.6615 1484.71 95.1061 1484.71 91H1482.71ZM1485.35 102.634C1487.11 105.895 1489.46 108.468 1492.42 110.327L1493.48 108.633C1490.84 106.972 1488.72 104.665 1487.11 101.686L1485.35 102.634ZM1492.45 110.344C1495.49 112.118 1498.87 113 1502.55 113V111C1499.2 111 1496.17 110.202 1493.46 108.616L1492.45 110.344ZM1643.03 49H1644.03V48H1643.03V49ZM1643.03 133V134H1644.03V133H1643.03ZM1619.75 133L1618.98 133.642L1619.28 134H1619.75V133ZM1587.83 94.84L1588.6 94.1984L1586.83 92.0859V94.84H1587.83ZM1587.83 133V134H1588.83V133H1587.83ZM1560.23 133H1559.23V134H1560.23V133ZM1560.23 49V48H1559.23V49H1560.23ZM1583.51 49L1584.28 48.3584L1583.98 48H1583.51V49ZM1615.43 87.16L1614.66 87.8016L1616.43 89.9141V87.16H1615.43ZM1615.43 49V48H1614.43V49H1615.43ZM1642.03 49V133H1644.03V49H1642.03ZM1643.03 132H1619.75V134H1643.03V132ZM1620.52 132.358L1588.6 94.1984L1587.06 95.4816L1618.98 133.642L1620.52 132.358ZM1586.83 94.84V133H1588.83V94.84H1586.83ZM1587.83 132H1560.23V134H1587.83V132ZM1561.23 133V49H1559.23V133H1561.23ZM1560.23 50H1583.51V48H1560.23V50ZM1582.74 49.6416L1614.66 87.8016L1616.2 86.5184L1584.28 48.3584L1582.74 49.6416ZM1616.43 87.16V49H1614.43V87.16H1616.43ZM1615.43 50H1643.03V48H1615.43V50ZM1717.4 52.84L1716.99 53.7538L1717.4 52.84ZM1730.72 63.88L1729.88 64.425V64.425L1730.72 63.88ZM1730.72 97.48L1729.88 96.935L1730.72 97.48ZM1717.4 108.52L1716.99 107.606L1717.4 108.52ZM1685 112.36V111.36H1684V112.36H1685ZM1685 133V134H1686V133H1685ZM1656.68 133H1655.68V134H1656.68V133ZM1656.68 49V48H1655.68V49H1656.68ZM1703.96 88L1704.61 88.7526L1704.62 88.745L1704.63 88.7372L1703.96 88ZM1703.96 73.48L1703.28 74.2172L1703.29 74.225L1703.3 74.2326L1703.96 73.48ZM1685 70.84V69.84H1684V70.84H1685ZM1685 90.52H1684V91.52H1685V90.52ZM1697.12 50C1704.77 50 1711.38 51.2622 1716.99 53.7538L1717.8 51.9262C1711.89 49.2978 1704.98 48 1697.12 48V50ZM1716.99 53.7538C1722.59 56.2435 1726.87 59.8034 1729.88 64.425L1731.55 63.335C1728.32 58.3566 1723.72 54.5565 1717.8 51.9262L1716.99 53.7538ZM1729.88 64.425C1732.88 69.0441 1734.4 74.4499 1734.4 80.68H1736.4C1736.4 74.1101 1734.79 68.3159 1731.55 63.335L1729.88 64.425ZM1734.4 80.68C1734.4 86.9101 1732.88 92.3159 1729.88 96.935L1731.55 98.025C1734.79 93.0441 1736.4 87.2499 1736.4 80.68H1734.4ZM1729.88 96.935C1726.87 101.557 1722.59 105.116 1716.99 107.606L1717.8 109.434C1723.72 106.804 1728.32 103.003 1731.55 98.025L1729.88 96.935ZM1716.99 107.606C1711.38 110.098 1704.77 111.36 1697.12 111.36V113.36C1704.98 113.36 1711.89 112.062 1717.8 109.434L1716.99 107.606ZM1697.12 111.36H1685V113.36H1697.12V111.36ZM1684 112.36V133H1686V112.36H1684ZM1685 132H1656.68V134H1685V132ZM1657.68 133V49H1655.68V133H1657.68ZM1656.68 50H1697.12V48H1656.68V50ZM1695.32 91.52C1699.28 91.52 1702.44 90.6558 1704.61 88.7526L1703.3 87.2474C1701.63 88.7042 1699.03 89.52 1695.32 89.52V91.52ZM1704.63 88.7372C1706.8 86.7505 1707.84 84.0201 1707.84 80.68H1705.84C1705.84 83.5799 1704.95 85.7295 1703.28 87.2628L1704.63 88.7372ZM1707.84 80.68C1707.84 77.3415 1706.8 74.6389 1704.61 72.7274L1703.3 74.2326C1704.95 75.6811 1705.84 77.7785 1705.84 80.68H1707.84ZM1704.63 72.7428C1702.46 70.7488 1699.29 69.84 1695.32 69.84V71.84C1699.02 71.84 1701.62 72.6912 1703.28 74.2172L1704.63 72.7428ZM1695.32 69.84H1685V71.84H1695.32V69.84ZM1684 70.84V90.52H1686V70.84H1684ZM1685 91.52H1695.32V89.52H1685V91.52ZM1744.68 49V48H1743.68V49H1744.68ZM1773 49H1774V48H1773V49ZM1773 133V134H1774V133H1773ZM1744.68 133H1743.68V134H1744.68V133ZM1744.68 50H1773V48H1744.68V50ZM1772 49V133H1774V49H1772ZM1773 132H1744.68V134H1773V132ZM1745.68 133V49H1743.68V133H1745.68ZM1856.48 111.64H1857.48V110.64H1856.48V111.64ZM1856.48 133V134H1857.48V133H1856.48ZM1786.64 133H1785.64V134H1786.64V133ZM1786.64 49V48H1785.64V49H1786.64ZM1854.92 49H1855.92V48H1854.92V49ZM1854.92 70.36V71.36H1855.92V70.36H1854.92ZM1814.48 70.36V69.36H1813.48V70.36H1814.48ZM1814.48 80.2H1813.48V81.2H1814.48V80.2ZM1850 80.2H1851V79.2H1850V80.2ZM1850 100.6V101.6H1851V100.6H1850ZM1814.48 100.6V99.6H1813.48V100.6H1814.48ZM1814.48 111.64H1813.48V112.64H1814.48V111.64ZM1855.48 111.64V133H1857.48V111.64H1855.48ZM1856.48 132H1786.64V134H1856.48V132ZM1787.64 133V49H1785.64V133H1787.64ZM1786.64 50H1854.92V48H1786.64V50ZM1853.92 49V70.36H1855.92V49H1853.92ZM1854.92 69.36H1814.48V71.36H1854.92V69.36ZM1813.48 70.36V80.2H1815.48V70.36H1813.48ZM1814.48 81.2H1850V79.2H1814.48V81.2ZM1849 80.2V100.6H1851V80.2H1849ZM1850 99.6H1814.48V101.6H1850V99.6ZM1813.48 100.6V111.64H1815.48V100.6H1813.48ZM1814.48 112.64H1856.48V110.64H1814.48V112.64Z" fill="#F7ECDA" fill-opacity="0.5"/>
</svg>
